<svg fill="none" height="28" viewBox="0 0 28 28" width="28" xmlns="http://www.w3.org/2000/svg"><path d="m13.9997 26c3.12 0 5.952-1.188 8.088-3.1439-.12-1.128-.84-2.232-2.124-3.0959-3.264-2.184-8.64-2.184-11.92798 0-1.284.8639-2.004 1.9679-2.124 3.0959 2.136 1.9559 4.96798 3.1439 8.08798 3.1439zm0 0c6.6274 0 12.0003-5.3731 12.0003-12.0003 0-6.62726-5.3726-11.9997-12-11.9997-6.62742 0-12 5.37244-12 11.9997 0 6.6272 5.3723 12.0003 11.9997 12.0003zm.144-11.0638c-.084-.012-.192-.012-.288 0-2.112-.072-3.792-1.7999-3.792-3.9239 0-2.17192 1.752-3.93588 3.936-3.93588 2.172 0 3.936 1.76396 3.936 3.93588-.012 2.124-1.68 3.8519-3.792 3.9239z" stroke="#a7a7a7" stroke-linecap="round" stroke-linejoin="round" stroke-width="2.5"/></svg>