<svg fill="none" height="14" viewBox="0 0 7 14" width="7" xmlns="http://www.w3.org/2000/svg"><path d="m6.99764 6.98902c.00045-.23324-.08088-.45928-.22989-.63888l-4.99741-5.989519c-.16965-.20386-.41344-.3320597-.67773-.35639684-.264288-.02433716-.527433.05718204-.731545.22662384-.204111.169442-.3324686.412928-.35683571.676892-.02436719.26396.05725211.52678.22690271.73064l4.477688 5.35064-4.31777 5.35068c-.083023.1021-.145023.2196-.182435.3457-.037413.1261-.0495.2584-.035568.3892s.053608.2575.116749.3729c.063141.1155.148502.2173.251176.2997.102768.0914.223332.1607.354138.2034.13081.0427.26904.058.40603.0448.13699-.0131.26979-.0543.39009-.1211.12029-.0667.22549-.1576.30899-.2669l4.8275-5.98948c.12545-.18476.18528-.40619.16992-.6289z" fill="#4038ff"/></svg>