<svg fill="none" height="16" viewBox="0 0 10 16" width="10" xmlns="http://www.w3.org/2000/svg"><path d="m.00337956 7.98745c-.00065181-.26656.11553744-.5249.32840044-.73015l7.13917-6.845162c.24235-.232982.59062-.3794967.96818-.40731054.37755-.02781386.75348.06535104 1.04506.25899854.29159.193649.47496.471917.50977.773594.03484.30167-.08179.60204-.32415.83502l-6.39669 6.11501 6.16824 6.11505c.1186.1167.20717.2509.26062.3951.05344.1441.07071.2953.05081.4447-.0199.1495-.07658.2944-.16679.4263-.0902.1319-.21214.2483-.35882.3425-.14681.1045-.31904.1836-.50591.2324s-.38434.0663-.58004.0513-.38542-.0621-.55727-.1384-.32213-.1802-.44141-.305l-6.896439-6.84521c-.1792156-.21115-.2646785-.46421-.24273144-.71874z" fill="#fff"/></svg>