<svg fill="none" height="24" viewBox="0 0 12 24" width="12" xmlns="http://www.w3.org/2000/svg"><path d="m.0040531 11.9812c-.00078217-.3999.1386449-.7874.3940809-1.0953l8.567006-10.267692c.29083-.349475.70874-.569246 1.16186-.61096678.453-.04172082.9041.09802678 1.254.38849878s.57.70787.6117 1.16039c.0418.45251-.0981.90306-.3889 1.25253l-7.67606 9.17254 7.40186 9.1725c.1424.175.2486.3765.3128.5927.0641.2162.0848.4429.0609.6671-.0238.2242-.0919.4415-.2001.6394s-.2546.3725-.4306.5137c-.1762.1567-.3828.2754-.6071.3487-.2242.0732-.4612.0994-.69602.0769-.23485-.0225-.46251-.0932-.66873-.2076-.20622-.1145-.38655-.2703-.5297-.4576l-8.275719-10.2677c-.2150588-.3167-.3176143-.6963-.2912779-1.0781z" fill="#4038ff"/></svg>