<svg fill="none" height="20" viewBox="0 0 20 20" width="20" xmlns="http://www.w3.org/2000/svg"><g stroke="#fff" stroke-linecap="round" stroke-width="1.5"><path d="m5.99957 10.0039h-4.99957"/><path d="m18.9978 10.0039h-2.9998"/><path d="m11.999 3h-10.999"/><path d="m7.999 17.0039h10.999"/><path d="m19.2485 3.00085c0 1.24338-1.0075 2.25085-2.2497 2.25085-1.2423 0-2.2498-1.00747-2.2498-2.25085 0-1.24337 1.0075-2.25085 2.2498-2.25085 1.2422 0 2.2497 1.00748 2.2497 2.25085z"/><path d="m.749545 17.0009c0 1.2433 1.007505 2.2508 2.249735 2.2508 1.24224 0 2.24974-1.0075 2.24974-2.2508 0-1.2434-1.0075-2.2509-2.24974-2.2509-1.24223 0-2.249735 1.0075-2.249735 2.2509z"/><path d="m13.2524 10.0087c0 1.2433-1.0075 2.2508-2.2497 2.2508-1.24227 0-2.24977-1.0075-2.24977-2.2508 0-1.24341 1.0075-2.25089 2.24977-2.25089 1.2422 0 2.2497 1.00748 2.2497 2.25089z"/></g></svg>