<svg fill="none" height="32" viewBox="0 0 32 32" width="32" xmlns="http://www.w3.org/2000/svg"><path d="m32 16c0-8.83656-7.1634-16-16-16-8.83656 0-16 7.16344-16 16 0 8.8366 7.16344 16 16 16 8.8366 0 16-7.1634 16-16z" fill="#fff"/><g clip-rule="evenodd" fill-rule="evenodd"><path d="m23.8304 16.1832c0-.5672-.0509-1.1127-.1454-1.6363h-7.5346v3.0945h4.3055c-.1855 1-.7491 1.8473-1.5964 2.4146v2.0073h2.5854c1.5128-1.3928 2.3855-3.4437 2.3855-5.8801z" fill="#4285f4"/><path d="m16.1491 23.9995c2.16 0 3.9709-.7163 5.2946-1.9381l-2.5855-2.0073c-.7164.48-1.6327.7636-2.7091.7636-2.0836 0-3.8473-1.4073-4.4764-3.2982h-2.6727v2.0728c1.3164 2.6145 4.0218 4.4072 7.1491 4.4072z" fill="#34a853"/><path d="m11.674 17.519c-.16-.48-.2509-.9927-.2509-1.52s.0909-1.04.2509-1.52v-2.0728h-2.6727c-.54182 1.0801-.85091 2.3019-.85091 3.5928s.30909 2.5127.85091 3.5927z" fill="#fbbc05"/><path d="m16.1491 11.1818c1.1746 0 2.2291.4037 3.0582 1.1964l2.2945-2.2946c-1.3854-1.29087-3.1963-2.0836-5.3527-2.0836-3.1273 0-5.8327 1.79273-7.1491 4.4073l2.6727 2.0727c.6291-1.8909 2.3928-3.2982 4.4764-3.2982z" fill="#ea4335"/></g></svg>