<svg fill="none" height="27" viewBox="0 0 28 27" width="28" xmlns="http://www.w3.org/2000/svg"><g stroke="#4038ff" stroke-miterlimit="10" stroke-width="2.5"><path d="m2 13.2812c0-2.096 0-3.1439.47333-4.02832.47332-.88439 1.34529-1.46568 3.08924-2.62824l4-2.66652c2.15093-1.43387 3.22643-2.1508 4.43743-2.1508s2.2865.71693 4.4374 2.1508l4 2.66652c1.744 1.16256 2.6159 1.74385 3.0893 2.62824.4733.88442.4733 1.93232.4733 4.02832v3.7175c0 3.7712 0 5.6568-1.1716 6.8284-1.1715 1.1716-3.0572 1.1716-6.8284 1.1716h-8c-3.77124 0-5.65685 0-6.82843-1.1716-1.17157-1.1716-1.17157-3.0572-1.17157-6.8284z"/><path d="m10 19.859c0-1.8853 0-2.8279.5856-3.4136.0001-.0002.0003-.0003.0004-.0005.5858-.5855 1.5284-.5855 3.4136-.5855 1.8852 0 2.8279 0 3.4136.5855.0002.0002.0003.0003.0004.0005.5856.5857.5856 1.5283.5856 3.4136v5.1418h-7.9992z"/></g></svg>