<svg fill="none" height="32" viewBox="0 0 32 32" width="32" xmlns="http://www.w3.org/2000/svg"><path d="m0 16c0-8.83656 7.16344-16 16-16 8.8366 0 16 7.16344 16 16 0 8.8366-7.1634 16-16 16-8.83656 0-16-7.1634-16-16z" fill="#000"/><g fill="#25f4ee"><path d="m14.4984 14.302v-.6229c-.2134-.0285-.4304-.0463-.6544-.0463-2.671-.0035-4.844 2.1713-4.844 4.8481 0 1.6409.818 3.0932 2.0699 3.9724-.8073-.8649-1.30169-2.0289-1.30169-3.3032 0-2.6376 2.11259-4.7876 4.73019-4.8481z"/><path d="m14.6157 21.3624c1.1915 0 2.1659-.9504 2.2086-2.1321l.0036-10.56111h1.9276c-.0391-.21713-.0605-.44138-.0605-.66919h-2.6318l-.0035 10.5611c-.0427 1.1817-1.0172 2.1321-2.2086 2.1321-.3699 0-.7184-.0925-1.0279-.2563.3984.5589 1.0528.9255 1.7925.9255z"/><path d="m22.3585 12.2521v-.5873c-.7362 0-1.4191-.2172-1.9952-.5945.5121.5874 1.2056 1.0145 1.9952 1.1818z"/></g><path d="m20.3627 11.0706c-.5619-.6442-.8998-1.48428-.8998-2.40263h-.7041c.1813 1.00378.7789 1.86523 1.6039 2.40263z" fill="#fe2c55"/><path d="m13.8479 16.2617c-1.2199 0-2.2122.9932-2.2122 2.2141 0 .8507.4837 1.5911 1.1879 1.9613-.2632-.3631-.4197-.808-.4197-1.2922 0-1.2209.9923-2.214 2.2122-2.214.2276 0 .4481.0392.6544.1033v-2.691c-.2134-.0285-.4303-.0463-.6544-.0463-.0391 0-.0747.0035-.1138.0035v2.0646c-.2098-.0641-.4268-.1033-.6544-.1033z" fill="#fe2c55"/><path d="m22.3587 12.2539v2.0467c-1.3657 0-2.6318-.4378-3.6632-1.1782v5.3571c0 2.6732-2.173 4.8516-4.8476 4.8516-1.0313 0-1.9916-.3275-2.7776-.8792.8856.9504 2.1481 1.5484 3.5459 1.5484 2.6709 0 4.8475-2.1749 4.8475-4.8516v-5.3571c1.0314.7404 2.2975 1.1782 3.6632 1.1782v-2.634c-.2668 0-.5228-.0285-.7682-.0819z" fill="#fe2c55"/><path d="m18.6954 18.478v-5.3571c1.0314.7404 2.2975 1.1782 3.6632 1.1782v-2.0467c-.7895-.1673-1.4831-.5944-1.9952-1.1818-.8251-.5374-1.419-1.39885-1.6076-2.40263h-1.9276l-.0035 10.56103c-.0427 1.1818-1.0172 2.1322-2.2086 2.1322-.7398 0-1.3906-.3667-1.7961-.9219-.7042-.3738-1.1878-1.1106-1.1878-1.9613 0-1.2209.9922-2.2141 2.2121-2.2141.2276 0 .4481.0392.6544.1033v-2.0646c-2.6176.057-4.73015 2.2069-4.73015 4.8446 0 1.2742.49435 2.4347 1.30165 3.3032.786.5517 1.7463.8792 2.7777.8792 2.6709 0 4.8475-2.1784 4.8475-4.8516z" fill="#fff"/></svg>