<svg width="26" height="26" viewBox="0 0 26 26" fill="none" xmlns="http://www.w3.org/2000/svg">
<path d="M12.9997 24C15.8597 24 18.4557 22.911 20.4137 21.1181C20.3037 20.0841 19.6437 19.0721 18.4667 18.2802C15.4747 16.2782 10.5467 16.2782 7.53274 18.2802C6.35574 19.0721 5.69574 20.0841 5.58574 21.1181C7.54374 22.911 10.1397 24 12.9997 24ZM12.9997 24C19.0749 24 24 19.0747 24 12.9997C24 6.92473 19.0751 2 13 2C6.92487 2 2 6.92473 2 12.9997C2 19.0747 6.92461 24 12.9997 24ZM13.1317 13.8582C13.0547 13.8472 12.9557 13.8472 12.8677 13.8582C10.9317 13.7922 9.3917 12.2082 9.3917 10.2613C9.3917 8.27034 10.9977 6.65339 12.9997 6.65339C14.9907 6.65339 16.6077 8.27034 16.6077 10.2613C16.5967 12.2082 15.0677 13.7922 13.1317 13.8582Z" stroke="#A7A7A7" stroke-width="2.5" stroke-linecap="round" stroke-linejoin="round"/>
</svg>
