<svg width="14" height="26" viewBox="0 0 14 26" fill="none" xmlns="http://www.w3.org/2000/svg">
<path d="M0.00472883 12.9796C0.00381618 12.5464 0.166482 12.1267 0.46449 11.7931L10.4593 0.669725C10.7986 0.291128 11.2862 0.0530422 11.8148 0.00784465C12.3434 -0.0373529 12.8696 0.11404 13.2779 0.428718C13.6861 0.743396 13.9428 1.19558 13.9915 1.6858C14.0403 2.17602 13.877 2.66412 13.5377 3.04271L4.58236 12.9796L13.2179 22.9165C13.3839 23.1061 13.5079 23.3243 13.5828 23.5585C13.6576 23.7928 13.6818 24.0384 13.6539 24.2813C13.626 24.5242 13.5467 24.7596 13.4204 24.974C13.2941 25.1884 13.1234 25.3775 12.9181 25.5305C12.7125 25.7003 12.4714 25.8289 12.2098 25.9082C11.9482 25.9875 11.6717 26.0159 11.3977 25.9915C11.1237 25.9672 10.8581 25.8906 10.6175 25.7666C10.377 25.6426 10.1666 25.4739 9.99956 25.271L0.344553 14.1476C0.0936513 13.8044 -0.0259967 13.3932 0.00472883 12.9796Z" fill="#4038FF"/>
</svg>
