<svg width="21" height="12" viewBox="0 0 21 12" fill="none" xmlns="http://www.w3.org/2000/svg">
<path d="M10.4835 0.00405407C10.1337 0.0032711 9.7946 0.142698 9.52521 0.398134L0.540932 8.96514C0.235142 9.25597 0.0428419 9.67388 0.0063362 10.127C-0.0301695 10.58 0.0921093 11.0311 0.346272 11.381C0.600435 11.7309 0.965663 11.951 1.36161 11.9927C1.75756 12.0345 2.15179 11.8946 2.45758 11.6038L10.4835 3.92774L18.5095 11.3296C18.6626 11.472 18.8389 11.5782 19.0281 11.6424C19.2172 11.7065 19.4156 11.7272 19.6118 11.7033C19.808 11.6795 19.9982 11.6114 20.1713 11.5032C20.3445 11.395 20.4972 11.2486 20.6208 11.0726C20.7579 10.8964 20.8618 10.6898 20.9258 10.4655C20.9899 10.2413 21.0128 10.0043 20.9932 9.76948C20.9735 9.53463 20.9116 9.30697 20.8115 9.10075C20.7113 8.89453 20.575 8.7142 20.4112 8.57105L11.4269 0.295332C11.1497 0.0802727 10.8176 -0.0222826 10.4835 0.00405407Z" fill="#848484"/>
</svg>
