<svg width="7" height="14" viewBox="0 0 7 14" fill="none" xmlns="http://www.w3.org/2000/svg">
<path d="M6.99764 6.98902C6.99809 6.75578 6.91676 6.52974 6.76775 6.35014L1.77034 0.360621C1.60069 0.156761 1.3569 0.0285613 1.09261 0.00422416C0.828322 -0.020113 0.565176 0.0614062 0.361065 0.230848C0.156954 0.40029 0.0285964 0.643776 0.00422929 0.90774C-0.0201379 1.1717 0.0614814 1.43452 0.231132 1.63838L4.70882 6.98902L0.39105 12.3397C0.308027 12.4418 0.246027 12.5593 0.208615 12.6854C0.171202 12.8115 0.159115 12.9438 0.173047 13.0746C0.186979 13.2054 0.226655 13.3321 0.289796 13.4475C0.352937 13.563 0.438298 13.6648 0.540972 13.7472C0.64374 13.8386 0.764305 13.9079 0.89511 13.9506C1.02592 13.9933 1.16415 14.0086 1.30114 13.9954C1.43813 13.9823 1.57093 13.9411 1.69123 13.8743C1.81152 13.8076 1.91672 13.7167 2.00022 13.6074L6.82772 7.61792C6.95317 7.43316 7.013 7.21173 6.99764 6.98902Z" fill="#4038FF"/>
</svg>
