<svg width="26" height="25" viewBox="0 0 26 25" fill="none" xmlns="http://www.w3.org/2000/svg">
<path d="M2 12.6148C2 10.5189 2 9.47101 2.4733 8.58664C2.9466 7.70226 3.81853 7.12098 5.5624 5.9584L8.5624 3.9584C10.7134 2.5244 11.7889 1.8074 13 1.8074C14.2111 1.8074 15.2866 2.5244 17.4376 3.9584L20.4376 5.9584C22.1815 7.12098 23.0534 7.70226 23.5267 8.58664C24 9.47101 24 10.5189 24 12.6148V15C24 18.7712 24 20.6569 22.8284 21.8284C21.6569 23 19.7712 23 16 23H10C6.22876 23 4.34315 23 3.17157 21.8284C2 20.6569 2 18.7712 2 15V12.6148Z" stroke="#A7A7A7" stroke-width="2.5" stroke-miterlimit="10"/>
<path d="M9.33398 18.2874C9.33398 16.724 9.33398 15.9423 9.74711 15.4038C9.8536 15.265 9.97786 15.1407 10.1167 15.0342C10.6552 14.6211 11.4369 14.6211 13.0003 14.6211V14.6211C14.5637 14.6211 15.3454 14.6211 15.8839 15.0342C16.0227 15.1407 16.147 15.265 16.2535 15.4038C16.6666 15.9423 16.6666 16.724 16.6666 18.2874V23.0012H9.33398V18.2874Z" stroke="#A7A7A7" stroke-width="2.5" stroke-miterlimit="10"/>
</svg>
