<svg width="21" height="12" viewBox="0 0 21 12" fill="none" xmlns="http://www.w3.org/2000/svg">
<path d="M10.4835 11.9959C10.1337 11.9967 9.7946 11.8573 9.52521 11.6019L0.540932 3.03486C0.235142 2.74403 0.0428418 2.32612 0.00633612 1.87305C-0.0301696 1.41998 0.0921093 0.968874 0.346272 0.618969C0.600435 0.269064 0.965663 0.0490225 1.36161 0.00725029C1.75756 -0.0345219 2.15179 0.105397 2.45758 0.396227L10.4835 8.07226L18.5095 0.670372C18.6626 0.528047 18.8389 0.421762 19.0281 0.357626C19.2172 0.293491 19.4156 0.272769 19.6118 0.296653C19.808 0.320536 19.9982 0.388553 20.1713 0.496795C20.3445 0.605037 20.4972 0.75137 20.6208 0.927382C20.7579 1.10356 20.8618 1.31024 20.9258 1.53448C20.9899 1.75871 21.0128 1.99568 20.9932 2.23052C20.9735 2.46537 20.9116 2.69303 20.8115 2.89925C20.7113 3.10547 20.575 3.2858 20.4112 3.42895L11.4269 11.7047C11.1497 11.9197 10.8176 12.0223 10.4835 11.9959Z" fill="#848484"/>
</svg>
