<svg xmlns="http://www.w3.org/2000/svg" viewBox="0 0 513.36 183.82"><defs><style>.cls-1{fill:none;stroke:#656538;stroke-miterlimit:10;stroke-width:2px;}</style></defs><g id="Слой_2" data-name="Слой 2"><path class="cls-1" d="M237.31,291.8a37.89,37.89,0,1,0,37.87,37.87A37.87,37.87,0,0,0,237.31,291.8Zm24.17,49.42a26.78,26.78,0,0,1-49.07-1.71,26.43,26.43,0,0,1-1.88-9.84,26.78,26.78,0,1,1,51,11.55Z" transform="translate(-147.63 -184.72)"/><path class="cls-1" d="M237.31,302.89a26.78,26.78,0,0,0-26.78,26.78,26.43,26.43,0,0,0,1.88,9.84,26.78,26.78,0,1,0,24.9-36.62Zm0,33.18a6.41,6.41,0,1,1,6.4-6.4A6.4,6.4,0,0,1,237.31,336.07Z" transform="translate(-147.63 -184.72)"/><path class="cls-1" d="M243.71,329.67a6.41,6.41,0,1,1-6.4-6.41A6.4,6.4,0,0,1,243.71,329.67Z" transform="translate(-147.63 -184.72)"/><path class="cls-1" d="M558.09,291.8a37.87,37.87,0,0,0-37.87,37.87,37.1,37.1,0,0,0,.66,7A37.87,37.87,0,0,0,596,330.39c0-.24,0-.48,0-.72A37.87,37.87,0,0,0,558.09,291.8Zm26.73,39.52a26.78,26.78,0,0,1-52.8,4.46,26.2,26.2,0,0,1-.71-6.11,26.78,26.78,0,1,1,53.56,0C584.87,330.22,584.85,330.77,584.82,331.32Z" transform="translate(-147.63 -184.72)"/><path class="cls-1" d="M558.09,302.89a26.78,26.78,0,0,0-26.78,26.78,26.2,26.2,0,0,0,.71,6.11,26.78,26.78,0,0,0,52.8-4.46c0-.55,0-1.1,0-1.65A26.78,26.78,0,0,0,558.09,302.89Zm5.39,30.23a6.4,6.4,0,1,1,1-3.45A6.29,6.29,0,0,1,563.48,333.12Z" transform="translate(-147.63 -184.72)"/><path class="cls-1" d="M564.5,329.67a6.29,6.29,0,0,1-1,3.45,6.4,6.4,0,1,1,1-3.45Z" transform="translate(-147.63 -184.72)"/><path class="cls-1" d="M659.88,288.75c-.51-9.44-9.1-18.72-9.1-18.72s-.26-17.53,0-27.66-12.68-9.62-12.68-9.62c-38.81-1.7-98.72-44.59-198.46-47-48-1.14-87.15,17-87.15,17l-88.39,39.14c-39.54,6.3-73.93,15.06-94.34,23.49-20.17,8.34-22.72,24.17-20.42,49.28,2.17,23.69,42.51,24.08,42.51,24.08a46.37,46.37,0,1,1,91.83-9.12A46,46,0,0,1,282,341.94l230.36-4.51a46.36,46.36,0,1,1,92.07-7.76S618,328,638.77,324.33,660.47,299.72,659.88,288.75ZM302.52,247.82S360.45,199.35,433,199.31L422.26,244Zm134.88-4.36,10.65-43.85c66.7,2.63,115.47,22.66,115.4,39.78Z" transform="translate(-147.63 -184.72)"/><line class="cls-1" x1="300.42" y1="14.89" x2="300.42" y2="14.88"/></g></svg>