<svg width="32" height="32" viewBox="0 0 32 32" fill="none" xmlns="http://www.w3.org/2000/svg">
<path d="M0 16C0 7.16344 7.16344 0 16 0C24.8366 0 32 7.16344 32 16C32 24.8366 24.8366 32 16 32C7.16344 32 0 24.8366 0 16Z" fill="black"/>
<path d="M14.4984 14.302V13.6791C14.285 13.6506 14.068 13.6328 13.844 13.6328C11.173 13.6293 9 15.8041 9 18.4809C9 20.1218 9.818 21.5741 11.0699 22.4533C10.2626 21.5884 9.76821 20.4244 9.76821 19.1501C9.76821 16.5125 11.8808 14.3625 14.4984 14.302Z" fill="#25F4EE"/>
<path d="M14.6167 21.3624C15.8081 21.3624 16.7826 20.412 16.8253 19.2303L16.8289 8.66919H18.7565C18.7173 8.45206 18.696 8.22781 18.696 8H16.0642L16.0606 18.5611C16.018 19.7428 15.0435 20.6932 13.852 20.6932C13.4822 20.6932 13.1336 20.6007 12.8242 20.4369C13.2225 20.9958 13.8769 21.3624 14.6167 21.3624Z" fill="#25F4EE"/>
<path d="M22.3585 12.2521V11.6648C21.6223 11.6648 20.9394 11.4476 20.3633 11.0703C20.8754 11.6577 21.5689 12.0848 22.3585 12.2521Z" fill="#25F4EE"/>
<path d="M20.3637 11.0706C19.8018 10.4264 19.4639 9.58632 19.4639 8.66797H18.7598C18.9411 9.67175 19.5386 10.5332 20.3637 11.0706Z" fill="#FE2C55"/>
<path d="M13.8469 16.2617C12.627 16.2617 11.6348 17.2549 11.6348 18.4758C11.6348 19.3265 12.1184 20.0669 12.8226 20.4371C12.5595 20.074 12.403 19.6291 12.403 19.1449C12.403 17.924 13.3952 16.9309 14.6151 16.9309C14.8428 16.9309 15.0632 16.9701 15.2695 17.0342V14.3432C15.0561 14.3147 14.8392 14.2969 14.6151 14.2969C14.576 14.2969 14.5404 14.3004 14.5013 14.3004V16.365C14.2915 16.3009 14.0745 16.2617 13.8469 16.2617Z" fill="#FE2C55"/>
<path d="M22.3587 12.2539V14.3006C20.993 14.3006 19.7269 13.8628 18.6955 13.1224V18.4795C18.6955 21.1527 16.5225 23.3311 13.8479 23.3311C12.8166 23.3311 11.8563 23.0036 11.0703 22.4519C11.9559 23.4023 13.2184 24.0003 14.6162 24.0003C17.2871 24.0003 19.4637 21.8254 19.4637 19.1487V13.7916C20.4951 14.532 21.7612 14.9698 23.1269 14.9698V12.3358C22.8601 12.3358 22.6041 12.3073 22.3587 12.2539Z" fill="#FE2C55"/>
<path d="M18.6944 18.478V13.1209C19.7258 13.8613 20.9919 14.2991 22.3576 14.2991V12.2524C21.5681 12.0851 20.8746 11.658 20.3624 11.0706C19.5373 10.5332 18.9434 9.67175 18.7549 8.66797H16.8273L16.8237 19.229C16.781 20.4108 15.8065 21.3612 14.6151 21.3612C13.8753 21.3612 13.2245 20.9945 12.8191 20.4393C12.1149 20.0655 11.6312 19.3287 11.6312 18.478C11.6312 17.2571 12.6235 16.2639 13.8433 16.2639C14.071 16.2639 14.2915 16.3031 14.4977 16.3672V14.3026C11.8801 14.3596 9.76758 16.5095 9.76758 19.1472C9.76758 20.4214 10.2619 21.5819 11.0693 22.4504C11.8552 23.0021 12.8155 23.3296 13.8469 23.3296C16.5179 23.3296 18.6944 21.1512 18.6944 18.478Z" fill="white"/>
</svg>
