<svg viewBox="0 0 533.45 155" xmlns="http://www.w3.org/2000/svg"><g fill="none" stroke="#1d1d1b" stroke-miterlimit="10" stroke-width="2" transform="translate(-157.29 -234.55)"><path d="m259.55 350.68a6.41 6.41 0 1 1 -6.4-6.41 6.4 6.4 0 0 1 6.4 6.41z"/><path d="m259.55 350.68a6.41 6.41 0 1 1 -6.4-6.41 6.4 6.4 0 0 1 6.4 6.41z"/><path d="m253.15 344.27a6.41 6.41 0 1 0 6.4 6.41 6.41 6.41 0 0 0 -6.4-6.41z"/><path d="m253.15 312.81a37.89 37.89 0 1 0 37.85 37.87 37.87 37.87 0 0 0 -37.85-37.87zm24.17 49.42a26.78 26.78 0 0 1 -49.07-1.71 26.43 26.43 0 0 1 -1.88-9.84 26.78 26.78 0 1 1 50.95 11.55z"/><path d="m253.15 323.9a26.78 26.78 0 0 0 -26.78 26.78 26.43 26.43 0 0 0 1.88 9.84 26.78 26.78 0 1 0 24.9-36.62zm0 20.37a6.41 6.41 0 1 1 -6.41 6.41 6.41 6.41 0 0 1 6.41-6.41z"/><path d="m572.58 312.81a37.87 37.87 0 1 0 33.82 54.92 36.15 36.15 0 0 0 2.12-5.09 37.89 37.89 0 0 0 -35.94-49.83zm24.17 49.42a26.79 26.79 0 1 1 2.61-11.55 26.64 26.64 0 0 1 -2.61 11.55z"/><path d="m572.58 323.9a26.78 26.78 0 0 0 -26.78 26.78 26.81 26.81 0 0 0 26.78 26.78 26.78 26.78 0 0 0 0-53.56zm0 33.18a6.41 6.41 0 1 1 6.4-6.4 6.4 6.4 0 0 1 -6.4 6.4z"/><path d="m579 350.68a6.41 6.41 0 1 1 -6.4-6.41 6.4 6.4 0 0 1 6.4 6.41z"/><path d="m665.74 366.83-50.87.77a45.54 45.54 0 1 0 -84 1.27l-237.67 3.59a45.54 45.54 0 1 0 -79.32 1.2s-53.11-1.3-55.32-33.47c-.8-11.62 0-26 12.37-35.93 21.87-17.49 71.72-24.83 141.16-29.09l87.33-39.17s11.71-2.24 14.84 3.45 0 9-1.13 10.57l-63.48 28.85 115.67-7.27v-10.13a8.88 8.88 0 0 1 17.75 0v9l57.93-3.64s-1.87-17.89 16.45-12.85 17.76 7.23 35.8 10.3 90.69 24.07 96 52.59c4.58 24.68-23.51 49.96-23.51 49.96z"/></g></svg>