<svg viewBox="0 0 524.59 156.9" xmlns="http://www.w3.org/2000/svg"><g fill="none" stroke="#1d1d1b" stroke-miterlimit="10" stroke-width="2" transform="translate(-163.62 -233.06)"><path d="m253.51 313.22a37.84 37.84 0 0 0 -33 56.5 36.9 36.9 0 0 0 2.78 4.21 37.85 37.85 0 0 0 61.07-.92 36.7 36.7 0 0 0 2.56-4.15 36.12 36.12 0 0 0 2.51-5.81 37.89 37.89 0 0 0 -35.94-49.83zm24.17 49.42a26.6 26.6 0 0 1 -4.3 6.4 27.06 27.06 0 0 1 -4.85 4.21 26.76 26.76 0 0 1 -29.39.44 27.1 27.1 0 0 1 -5-4.15 26.73 26.73 0 0 1 -5.5-8.61 26.43 26.43 0 0 1 -1.88-9.84 26.78 26.78 0 1 1 51 11.55z"/><path d="m253.51 324.31a26.78 26.78 0 0 0 -26.78 26.78 26.43 26.43 0 0 0 1.88 9.84 26.73 26.73 0 0 0 5.5 8.61 27.1 27.1 0 0 0 5 4.15 26.76 26.76 0 0 0 29.39-.44 27.06 27.06 0 0 0 4.85-4.21 26.78 26.78 0 0 0 -19.87-44.73zm0 33.18a6.41 6.41 0 1 1 6.4-6.4 6.4 6.4 0 0 1 -6.4 6.4z"/><path d="m259.91 351.09a6.41 6.41 0 1 1 -6.4-6.41 6.4 6.4 0 0 1 6.4 6.41z"/><path d="m578.15 313.22a37.91 37.91 0 0 0 -36.7 47.3 36.69 36.69 0 0 0 1.78 5.27 37.26 37.26 0 0 0 4.72 8.14 37.85 37.85 0 0 0 61.05-.93 37.2 37.2 0 0 0 4.28-7.84c.29-.69.55-1.4.79-2.12a37.89 37.89 0 0 0 -35.94-49.83zm24.17 49.42a25.44 25.44 0 0 1 -1.44 2.61 26.86 26.86 0 0 1 -7.71 8 26.76 26.76 0 0 1 -29.39.44 26.75 26.75 0 0 1 -10.53-12.76 26.43 26.43 0 0 1 -1.88-9.84 26.78 26.78 0 1 1 51 11.55z"/><path d="m578.15 324.31a26.78 26.78 0 0 0 -26.78 26.78 26.43 26.43 0 0 0 1.88 9.84 26.75 26.75 0 0 0 24.9 16.94 26.55 26.55 0 0 0 15-4.62 26.86 26.86 0 0 0 7.71-8 25.44 25.44 0 0 0 1.44-2.61 26.79 26.79 0 0 0 -24.17-38.33zm0 33.18a6.41 6.41 0 1 1 6.4-6.4 6.4 6.4 0 0 1 -6.4 6.4z"/><path d="m584.55 351.09a6.41 6.41 0 1 1 -6.4-6.41 6.4 6.4 0 0 1 6.4 6.41z"/><path d="m685.14 320.56c-2.45-8-10.2-27.86-14.63-40.28-3.38-9.48-32-9.4-45.41-8.83a24.68 24.68 0 0 1 -12.72-2.88c-43.46-23.32-100.51-34.75-154.47-34.51-56.42.26-127.14 42.05-127.14 42.05-14.3-.26-83.24 3-124.77 14.38s-43.06 46-40.68 64.34 44.54 15 44.54 15a47.51 47.51 0 1 1 87.77-1.14c68.2-.87 163-2 235.38-2.81a47.51 47.51 0 1 1 90.54-.79c75.77-.24 63.94-36.88 61.59-44.53zm-120.33-52.37c-1.9 2.22-3.34 3.89-4.43 5.15a10.15 10.15 0 0 1 -7.71 3.53h-195.52s37.11-27.87 97.36-32.87 116.43 17 110.3 24.19z"/></g></svg>