<svg viewBox="0 0 491.68 191.19" xmlns="http://www.w3.org/2000/svg"><g fill="none" stroke="#1d1d1b" stroke-miterlimit="10" stroke-width="2"><g transform="translate(-158.43 -228.38)"><path d="m237.1 342.83a37.9 37.9 0 0 0 -37.33 44.33q.25 1.5.63 3a37.89 37.89 0 0 0 72.6 2.5 36.85 36.85 0 0 0 1.29-5 37.86 37.86 0 0 0 -37.23-44.79zm25.9 44.72a26.78 26.78 0 0 1 -50.79 3 24.59 24.59 0 0 1 -1.07-3.31 26.78 26.78 0 1 1 51.86.32z"/><path d="m237.1 353.92a26.77 26.77 0 0 0 -26 33.31 24.59 24.59 0 0 0 1.07 3.31 26.78 26.78 0 1 0 24.9-36.62zm0 33.18a6.41 6.41 0 1 1 6.4-6.4 6.4 6.4 0 0 1 -6.4 6.4z"/><path d="m243.5 380.7a6.41 6.41 0 1 1 -6.4-6.41 6.4 6.4 0 0 1 6.4 6.41z"/><path d="m649 337.55c-.62-9.77-10.3-14.55-10.3-14.55s-.34-17.19 0-27.57-33.87-41.88-33.87-41.88c-1.55-16.55-26.4-21.55-131.6-24.08s-195.06 51.53-195.06 51.53c-106.17 17.4-117.7 41.15-118.72 72.92s31.05 33.18 31.05 33.18a47 47 0 1 1 93.63-6.4 48.59 48.59 0 0 1 -.51 7l234.73 1.45a47.8 47.8 0 0 1 -.75-8.43 47 47 0 1 1 94.08 0 47.6 47.6 0 0 1 -.86 9c33.4-7.46 39.27-34.55 38.18-52.17zm-173.7-51.2-180.77 14s20.92-43.22 118.47-54.8a493.3 493.3 0 0 1 62.3-3.61zm84.93-6.58-69.1 5.35v-42.74c48.92 2.34 76.38 13.19 79 18.83 1.31 2.96-1.58 9.19-9.92 18.56z"/><path d="m564.64 342.83a37.89 37.89 0 0 0 -36.92 46.36c.07.32.14.63.22.94a37.89 37.89 0 0 0 72.64 2.53c.33-1 .62-2 .86-3a37.87 37.87 0 0 0 -36.8-46.81zm25.27 46.74a27.38 27.38 0 0 1 -1.1 2.68 26.78 26.78 0 0 1 -49.07-1.71c-.17-.42-.33-.85-.47-1.28a26.4 26.4 0 0 1 -1.41-8.56 26.78 26.78 0 1 1 52 8.87z"/><path d="m564.64 353.92a26.78 26.78 0 0 0 -26.78 26.78 26.4 26.4 0 0 0 1.41 8.56c.14.43.3.86.47 1.28a26.78 26.78 0 0 0 49.07 1.71 27.38 27.38 0 0 0 1.1-2.68 26.78 26.78 0 0 0 -25.27-35.65zm0 33.18a6.41 6.41 0 1 1 6.4-6.4 6.4 6.4 0 0 1 -6.4 6.4z"/><path d="m571 380.7a6.41 6.41 0 1 1 -6.4-6.41 6.4 6.4 0 0 1 6.4 6.41z"/></g><path d="m316.85 13.56v-.01"/></g></svg>