<svg viewBox="0 0 357.59 166.45" xmlns="http://www.w3.org/2000/svg"><g fill="none" stroke="#1d1d1b" stroke-miterlimit="10" stroke-width="2"><g transform="translate(-198.52 -218.54)"><path d="m280.05 344.36a26.78 26.78 0 0 0 -52.66 0 26.13 26.13 0 0 0 -.45 4.88 26.65 26.65 0 0 0 .44 4.84 26.34 26.34 0 0 0 1.44 5 27.85 27.85 0 0 0 1.42 3 26.8 26.8 0 0 0 47 0c.24-.43.47-.87.68-1.32a26.88 26.88 0 0 0 2.61-11.55 26.13 26.13 0 0 0 -.48-4.85zm-22.16 9.72a6.41 6.41 0 0 1 -10.58-4.84 6.25 6.25 0 0 1 .83-3.13 2.77 2.77 0 0 1 .22-.37.9.9 0 0 1 .14-.2 2.39 2.39 0 0 1 .25-.33s0 0 0 0a.22.22 0 0 1 .08-.09 2.18 2.18 0 0 1 .25-.28.08.08 0 0 1 0 0 .53.53 0 0 1 .13-.13 1.93 1.93 0 0 1 .3-.27.31.31 0 0 1 .11-.09 5 5 0 0 1 .91-.62 4 4 0 0 1 .66-.32 1.36 1.36 0 0 1 .28-.11 5.58 5.58 0 0 1 1.28-.32h.31a5.83 5.83 0 0 1 .59 0 5.49 5.49 0 0 1 .58 0h.31a4.86 4.86 0 0 1 1.26.32 1 1 0 0 1 .27.1.33.33 0 0 1 .16.07 2.67 2.67 0 0 1 .42.2 3.82 3.82 0 0 1 .59.35 5.07 5.07 0 0 1 .46.35.18.18 0 0 1 .08.07s0 0 0 0a1.37 1.37 0 0 1 .25.23.91.91 0 0 1 .17.17 2.17 2.17 0 0 1 .32.36l.05.06a1.66 1.66 0 0 1 .23.31.9.9 0 0 1 .14.2 2.77 2.77 0 0 1 .22.37.24.24 0 0 1 .06.09c.1.17.18.35.27.54a6.45 6.45 0 0 1 .5 2.5 6.32 6.32 0 0 1 -2.1 4.81z"/><path d="m260.12 349.24a6.41 6.41 0 0 1 -12.81 0 6.25 6.25 0 0 1 .83-3.13 2.77 2.77 0 0 1 .22-.37.9.9 0 0 1 .14-.2 2.39 2.39 0 0 1 .25-.33s0 0 0 0a.22.22 0 0 1 .08-.09 2.18 2.18 0 0 1 .25-.28.08.08 0 0 1 0 0 .8.8 0 0 1 .13-.13 1.93 1.93 0 0 1 .3-.27.31.31 0 0 1 .11-.09 5 5 0 0 1 .91-.62 4 4 0 0 1 .66-.32 1.36 1.36 0 0 1 .28-.11 5.58 5.58 0 0 1 1.28-.32h.31a5.83 5.83 0 0 1 .59 0 5.49 5.49 0 0 1 .58 0h.31a4.86 4.86 0 0 1 1.26.32 1 1 0 0 1 .27.1.33.33 0 0 1 .16.07 2.67 2.67 0 0 1 .42.2 3.82 3.82 0 0 1 .59.35 5.07 5.07 0 0 1 .46.35.18.18 0 0 1 .08.07s0 0 0 0a1.37 1.37 0 0 1 .25.23.91.91 0 0 1 .17.17 3.73 3.73 0 0 1 .32.36l.05.06a2.26 2.26 0 0 1 .23.31.9.9 0 0 1 .14.2 2.77 2.77 0 0 1 .22.37.24.24 0 0 1 .06.09l.27.54a6.45 6.45 0 0 1 .63 2.47z"/><path d="m513.53 344.36a26.78 26.78 0 0 0 -52.66 0 26.13 26.13 0 0 0 -.45 4.88 26.65 26.65 0 0 0 .44 4.84 26.34 26.34 0 0 0 1.44 5 27.85 27.85 0 0 0 1.42 3 26.8 26.8 0 0 0 47 0c.24-.43.47-.87.68-1.32a26.88 26.88 0 0 0 2.6-11.52 26.13 26.13 0 0 0 -.47-4.88zm-22.16 9.72a6.41 6.41 0 0 1 -10.58-4.84 6.14 6.14 0 0 1 .13-1.29.64.64 0 0 1 0-.07 4.44 4.44 0 0 1 .16-.6 4.49 4.49 0 0 1 .23-.61 3 3 0 0 1 .2-.4.54.54 0 0 1 .1-.18 2.5 2.5 0 0 1 .21-.35.9.9 0 0 1 .14-.2 2.26 2.26 0 0 1 .23-.31l.05-.06a2.17 2.17 0 0 1 .32-.36l.17-.17a1.79 1.79 0 0 1 .25-.23s0 0 .05 0a5.55 5.55 0 0 1 1.15-.78 2.67 2.67 0 0 1 .42-.2 4.71 4.71 0 0 1 .71-.27l.49-.13a3.55 3.55 0 0 1 .47-.08h.31a5.82 5.82 0 0 1 1.18 0h.24l.41.07.32.07a2 2 0 0 1 .33.09.75.75 0 0 1 .24.08 2 2 0 0 1 .39.14l.12.05a3.11 3.11 0 0 1 .41.2l.15.08a4.34 4.34 0 0 1 .46.28 5.57 5.57 0 0 1 .56.43 5.36 5.36 0 0 1 .71.72.22.22 0 0 1 .08.09s0 0 0 0a1.59 1.59 0 0 1 .25.33.9.9 0 0 1 .14.2 2.5 2.5 0 0 1 .21.35.71.71 0 0 1 .11.21 3 3 0 0 1 .18.36 1.42 1.42 0 0 1 .08.18c.06.15.12.3.17.46a5.83 5.83 0 0 1 .24 1.1v.3s0 .36 0 .54a6.32 6.32 0 0 1 -2.19 4.8z"/><path d="m493.6 349.24a6.41 6.41 0 0 1 -12.81 0 6.14 6.14 0 0 1 .13-1.29.64.64 0 0 1 0-.07 4.44 4.44 0 0 1 .16-.6 6.37 6.37 0 0 1 .23-.61 3 3 0 0 1 .2-.4.54.54 0 0 1 .1-.18 2.5 2.5 0 0 1 .21-.35.9.9 0 0 1 .14-.2 2.26 2.26 0 0 1 .23-.31l.05-.06a3.73 3.73 0 0 1 .32-.36l.17-.17a2.73 2.73 0 0 1 .25-.23s0 0 .05 0a5.55 5.55 0 0 1 1.15-.78 2.67 2.67 0 0 1 .42-.2 4.71 4.71 0 0 1 .71-.27l.49-.13a3.55 3.55 0 0 1 .47-.08h.31a5.82 5.82 0 0 1 1.18 0h.24l.41.07.32.07a2 2 0 0 1 .33.09l.24.08a2 2 0 0 1 .39.14l.12.05a3.11 3.11 0 0 1 .41.2l.15.08a4.34 4.34 0 0 1 .46.28 5.57 5.57 0 0 1 .56.43 5.36 5.36 0 0 1 .71.72.22.22 0 0 1 .08.09s0 0 0 0a1.59 1.59 0 0 1 .25.33.9.9 0 0 1 .14.2 2.5 2.5 0 0 1 .21.35.71.71 0 0 1 .11.21 3 3 0 0 1 .18.36 1.42 1.42 0 0 1 .08.18c.06.15.12.3.17.46a5.83 5.83 0 0 1 .24 1.1v.3s.04.32.04.5z"/><path d="m542.68 314.4s-5.49-59.66-6.13-68.34-7.4-8.29-7.4-8.29-167.41 2.34-177.7 2.51-32.85 34.46-32.85 34.46c-3.92.09-67.83 3.32-78.73 4.6s-10 11-18.3 13.7-11.66 10-11.57 12.6 3.32 3.23 3.32 3.23v6.73a56.33 56.33 0 0 0 -7.92 0c-5.78.25-6.38 8.08-5.61 17.78.63 8.09 8.66 10.32 11.32 10.84l12.68-32.85a7.72 7.72 0 0 1 7.23-5.31c5.7-.08 40.26 0 40.26 0a7.24 7.24 0 0 1 5.1 3.07c2.05 2.87 27.62 35.23 27.62 35.23h139.23s18.2-30.13 20.81-33.7a8.06 8.06 0 0 1 6.45-3.38s28.72-.07 34.72 0 6.7 2.42 6.7 2.42l20.18 34.66c23.78 0 22.76-12.51 23-21.9s-12.41-8.06-12.41-8.06zm-152.85-31.78-65.19.47 22.21-31.41 43-.75zm16.68-.13v-31.85l53.11-.92v32.39zm69.79-.5v-32.56l46.47-.81 2.44 33z"/></g><path d="m191.31 32.39v31.69l-65.19.47 22.21-31.41z"/><path d="m207.99 32.1 53.11-.92v32.39l-53.11.38z"/><path d="m326.69 63.09-48.91.36v-32.56l46.47-.81z"/><path d="m191.31 32.39v31.69l-65.19.47 22.21-31.41z"/><path d="m207.99 32.1 53.11-.92v32.39l-53.11.38z"/><path d="m326.69 63.09-48.91.36v-32.56l46.47-.81z"/><path d="m477.77 225.1a5.56 5.56 0 0 1 -5.56 5.55l-100.76.95a5.56 5.56 0 1 1 0-11.11l100.76-1a5.56 5.56 0 0 1 5.56 5.61z" transform="translate(-198.52 -218.54)"/><path d="m437.29 353.81a5.52 5.52 0 0 1 -5.52 5.52h-118.77a5.52 5.52 0 0 1 0-11h118.77a5.52 5.52 0 0 1 5.52 5.48z" transform="translate(-198.52 -218.54)"/><circle cx="55.2" cy="130.7" r="34.75"/><circle cx="288.68" cy="130.7" r="34.75"/></g></svg>