<svg viewBox="0 0 670.95 142.53" xmlns="http://www.w3.org/2000/svg"><g fill="none" stroke="#1d1d1b" stroke-miterlimit="10" stroke-width="2" transform="translate(-91.37 -242.5)"><path d="m176.18 314.49a34.78 34.78 0 1 0 34.75 34.75 34.75 34.75 0 0 0 -34.75-34.75zm26.34 39.59a26.43 26.43 0 0 1 -1.52 5.23c-.2.5-.42 1-.65 1.48s-.44.89-.68 1.32a26.37 26.37 0 0 1 -3 4.38 26.72 26.72 0 0 1 -45.28-7.18 1.6 1.6 0 0 1 -.1-.23 26.34 26.34 0 0 1 -1.44-5 26.65 26.65 0 0 1 -.44-4.84 26.13 26.13 0 0 1 .45-4.88 26.78 26.78 0 0 1 52.66 0 26.13 26.13 0 0 1 .45 4.88 26.65 26.65 0 0 1 -.45 4.84z"/><path d="m202.51 344.36a26.78 26.78 0 0 0 -52.66 0 26.13 26.13 0 0 0 -.45 4.88 26.65 26.65 0 0 0 .44 4.84 26.34 26.34 0 0 0 1.44 5 1.6 1.6 0 0 0 .1.23 26.79 26.79 0 0 0 48.29 2.8c.24-.43.47-.87.68-1.32s.45-1 .65-1.48a26.86 26.86 0 0 0 2-10.07 26.13 26.13 0 0 0 -.49-4.88zm-22.16 9.72a6.41 6.41 0 0 1 -10.58-4.84 6.25 6.25 0 0 1 .83-3.13 2.77 2.77 0 0 1 .22-.37.9.9 0 0 1 .14-.2 2.39 2.39 0 0 1 .25-.33s0 0 0 0a.22.22 0 0 1 .08-.09 2.18 2.18 0 0 1 .25-.28.53.53 0 0 1 .13-.13 1.93 1.93 0 0 1 .3-.27.31.31 0 0 1 .11-.09 5 5 0 0 1 .91-.62 4 4 0 0 1 .66-.32 1.36 1.36 0 0 1 .28-.11 5.58 5.58 0 0 1 1.28-.32h.31a5.83 5.83 0 0 1 .59 0 5.49 5.49 0 0 1 .58 0h.31a4.86 4.86 0 0 1 1.26.32 1 1 0 0 1 .27.1.33.33 0 0 1 .16.07 2.67 2.67 0 0 1 .42.2 3.82 3.82 0 0 1 .59.35 5.07 5.07 0 0 1 .46.35.18.18 0 0 1 .08.07s0 0 .05 0a1.37 1.37 0 0 1 .25.23.91.91 0 0 1 .17.17 2.17 2.17 0 0 1 .32.36v.06a1.66 1.66 0 0 1 .23.31.9.9 0 0 1 .14.2 2.77 2.77 0 0 1 .22.37.24.24 0 0 1 .06.09c.1.17.18.35.27.54a6.45 6.45 0 0 1 .5 2.5 6.32 6.32 0 0 1 -2.1 4.81z"/><path d="m182.58 349.24a6.41 6.41 0 0 1 -12.81 0 6.25 6.25 0 0 1 .83-3.13 2.77 2.77 0 0 1 .22-.37.9.9 0 0 1 .14-.2 2.39 2.39 0 0 1 .25-.33s0 0 0 0a.22.22 0 0 1 .08-.09 2.18 2.18 0 0 1 .25-.28.8.8 0 0 1 .13-.13 1.93 1.93 0 0 1 .3-.27.31.31 0 0 1 .11-.09 5 5 0 0 1 .91-.62 4 4 0 0 1 .66-.32 1.36 1.36 0 0 1 .28-.11 5.58 5.58 0 0 1 1.28-.32h.31a5.83 5.83 0 0 1 .59 0 5.49 5.49 0 0 1 .58 0h.31a4.86 4.86 0 0 1 1.26.32 1 1 0 0 1 .27.1.33.33 0 0 1 .16.07 2.67 2.67 0 0 1 .42.2 3.82 3.82 0 0 1 .59.35 5.07 5.07 0 0 1 .46.35.18.18 0 0 1 .08.07s0 0 .05 0a1.37 1.37 0 0 1 .25.23.91.91 0 0 1 .17.17 3.73 3.73 0 0 1 .32.36v.06a2.26 2.26 0 0 1 .23.31.9.9 0 0 1 .14.2 2.77 2.77 0 0 1 .22.37.24.24 0 0 1 .06.09l.27.54a6.45 6.45 0 0 1 .63 2.47z"/><path d="m653.61 314.53a34.78 34.78 0 1 0 34.75 34.75 34.75 34.75 0 0 0 -34.75-34.75zm26.39 39.59a27.4 27.4 0 0 1 -1.5 5.19c-.21.51-.43 1-.67 1.52s-.44.89-.68 1.32a26.37 26.37 0 0 1 -3 4.38 26.82 26.82 0 0 1 -44-4.38 27.23 27.23 0 0 1 -1.34-2.84c0-.06 0-.13-.08-.19a26.34 26.34 0 0 1 -1.44-5 26.65 26.65 0 0 1 -.44-4.84 26.13 26.13 0 0 1 .45-4.88 26.78 26.78 0 0 1 52.66 0 26.13 26.13 0 0 1 .45 4.88 26.65 26.65 0 0 1 -.41 4.84z"/><path d="m679.94 344.4a26.78 26.78 0 0 0 -52.66 0 26.13 26.13 0 0 0 -.45 4.88 26.65 26.65 0 0 0 .44 4.84 26.34 26.34 0 0 0 1.44 5c0 .06 0 .13.08.19a27.23 27.23 0 0 0 1.34 2.84 26.8 26.8 0 0 0 47 0c.24-.43.47-.87.68-1.32s.46-1 .67-1.52a27.4 27.4 0 0 0 1.5-5.19 26.65 26.65 0 0 0 .44-4.84 26.13 26.13 0 0 0 -.48-4.88zm-22.16 9.72a6.41 6.41 0 0 1 -10.58-4.84 6.25 6.25 0 0 1 .83-3.13 2.77 2.77 0 0 1 .22-.37.9.9 0 0 1 .14-.2 2.39 2.39 0 0 1 .25-.33s0 0 0 0a.22.22 0 0 1 .08-.09 2.18 2.18 0 0 1 .25-.28.53.53 0 0 1 .13-.13 1.93 1.93 0 0 1 .3-.27.31.31 0 0 1 .11-.09 5 5 0 0 1 .91-.62 4 4 0 0 1 .66-.32 1.36 1.36 0 0 1 .28-.11 5.58 5.58 0 0 1 1.28-.32h.31a5.83 5.83 0 0 1 .59 0 5.49 5.49 0 0 1 .58 0h.31a4.86 4.86 0 0 1 1.26.32 1 1 0 0 1 .27.1.33.33 0 0 1 .16.07 2.67 2.67 0 0 1 .42.2 3.82 3.82 0 0 1 .59.35 5.07 5.07 0 0 1 .46.35.18.18 0 0 1 .08.07s0 0 0 0a1.37 1.37 0 0 1 .25.23.91.91 0 0 1 .17.17s0 0 0 0a2.17 2.17 0 0 1 .32.36l.05.06a1.66 1.66 0 0 1 .23.31.9.9 0 0 1 .14.2 2.77 2.77 0 0 1 .22.37.24.24 0 0 1 .06.09c.1.17.18.35.27.54a6.45 6.45 0 0 1 .5 2.5 6.32 6.32 0 0 1 -2.1 4.81z"/><path d="m660 349.28a6.41 6.41 0 0 1 -12.81 0 6.25 6.25 0 0 1 .83-3.13 2.77 2.77 0 0 1 .22-.37.9.9 0 0 1 .14-.2 2.39 2.39 0 0 1 .25-.33s0 0 0 0a.22.22 0 0 1 .08-.09 2.18 2.18 0 0 1 .25-.28l.13-.13a1.93 1.93 0 0 1 .3-.27.31.31 0 0 1 .11-.09 5 5 0 0 1 .91-.62 4 4 0 0 1 .66-.32 1.36 1.36 0 0 1 .28-.11 5.58 5.58 0 0 1 1.28-.32h.31a5.83 5.83 0 0 1 .59 0 5.49 5.49 0 0 1 .58 0h.31a4.86 4.86 0 0 1 1.26.32 1 1 0 0 1 .27.1.33.33 0 0 1 .16.07 2.67 2.67 0 0 1 .42.2 3.82 3.82 0 0 1 .59.35 5.07 5.07 0 0 1 .46.35.18.18 0 0 1 .08.07s0 0 0 0a1.37 1.37 0 0 1 .25.23.91.91 0 0 1 .17.17s0 0 0 0a3.73 3.73 0 0 1 .32.36l.05.06a2.26 2.26 0 0 1 .23.31.9.9 0 0 1 .14.2 2.77 2.77 0 0 1 .22.37.24.24 0 0 1 .06.09q.13.25.27.54a6.45 6.45 0 0 1 .63 2.47z"/><path d="m757.56 320.28c-2.9-.85-7.83-18.22-13.11-29.45s-22.45-5.28-49.79-8.83-52.17-19.92-77-32c-8.69-4.23-46.19-6-92.37-6.37q-7.21-.08-14.68-.09c-21.3-.07-43.92.09-66 .39l-14.69.21c-23.85.39-46.64.9-66.05 1.4l-14.68.4c-21.31.6-36.65 1.13-41.78 1.34-24.68 1-78.93 38.38-78.93 38.38-50.56 2.93-92.13 13.7-111.79 17.1s-24.25 23.92-24.25 23.92v20.85c0 11.32 6.89 11.8 6.89 11.8h37.11a41.05 41.05 0 1 1 79.62 0h397.8a41.05 41.05 0 1 1 79.64 0c17.06 0 36.55-5 58.34-7.2 9.86-1 9.36-19.75 9.53-24.68s-.92-6.32-3.81-7.17zm-408.44-35.53-104.88 1.25s45.06-32.93 70.08-33.32c4.69-.07 17.31-.39 34.8-.78zm80.73-1-66.05.81v-33c19.14-.43 42.08-.89 66.05-1.25zm14.69-33.63c22.32-.3 45.06-.49 66-.46v33.11l-66 .81zm80.73 32.47v-32.86c40.88.27 72.38 1.55 76.29 4.76 11.49 9.45 24.42 26.89 24.42 26.89z"/><path d="m349.12 251.92v32.83l-104.88 1.25s45.06-32.93 70.08-33.32c4.68-.05 17.31-.37 34.8-.76z"/><path d="m429.85 250.34v33.42l-66.05.81v-33c19.14-.41 42.08-.87 66.05-1.23z"/><path d="m510.59 249.67v33.11l-66 .81v-33.46c22.27-.3 45.01-.49 66-.46z"/><path d="m626 281.38-100.73 1.22v-32.87c40.88.27 72.38 1.55 76.29 4.76 11.49 9.45 24.44 26.89 24.44 26.89z"/><path d="m349.12 251.92v32.83l-104.88 1.25s45.06-32.93 70.08-33.32c4.68-.05 17.31-.37 34.8-.76z"/><path d="m429.85 250.34v33.42l-66.05.81v-33c19.14-.41 42.08-.87 66.05-1.23z"/><path d="m510.59 249.67v33.11l-66 .81v-33.46c22.27-.3 45.01-.49 66-.46z"/><path d="m626 281.38-100.73 1.22v-32.87c40.88.27 72.38 1.55 76.29 4.76 11.49 9.45 24.44 26.89 24.44 26.89z"/></g></svg>