<svg viewBox="0 0 492.37 195.67" xmlns="http://www.w3.org/2000/svg"><g fill="none" stroke="#1d1d1b" stroke-miterlimit="10" stroke-width="2" transform="translate(-159.25 -193.89)"><path d="m576.05 356.77a4.75 4.75 0 0 0 1-.4 5.4 5.4 0 0 1 -1 .4z"/><path d="m574.07 357.09h.78-.25z"/><path d="m577 356.37a4.75 4.75 0 0 1 -1 .4 5.4 5.4 0 0 0 1-.4z"/><path d="m574.07 357.09h.78-.25z"/><path d="m577 356.37a4.75 4.75 0 0 1 -1 .4 5.4 5.4 0 0 0 1-.4z"/><path d="m618.08 354.58a.29.29 0 0 1 0 .13c-.36-.01 0-.13 0-.13z"/><path d="m253.43 312.82a37.91 37.91 0 0 0 -36.7 47.3c.1.4.21.79.32 1.18a38 38 0 0 0 3.4 8 36.9 36.9 0 0 0 2.78 4.21 37.85 37.85 0 0 0 61.07-.92 36.7 36.7 0 0 0 2.56-4.15 36.19 36.19 0 0 0 1.7-3.62q.44-1.08.81-2.19a37.89 37.89 0 0 0 -35.94-49.83zm24.17 49.42c-.33.69-.69 1.36-1.07 2a26.42 26.42 0 0 1 -3.23 4.39 27.06 27.06 0 0 1 -4.85 4.21 26.76 26.76 0 0 1 -29.39.44 27 27 0 0 1 -9.95-11.39c-.2-.45-.4-.91-.58-1.37a26.43 26.43 0 0 1 -1.88-9.84 26.78 26.78 0 1 1 51 11.55z"/><path d="m253.43 323.91a26.78 26.78 0 0 0 -26.78 26.78 26.43 26.43 0 0 0 1.88 9.84c.18.46.38.92.58 1.37a26.77 26.77 0 0 0 24.32 15.57 26.55 26.55 0 0 0 15-4.62 27.06 27.06 0 0 0 4.85-4.21 26.42 26.42 0 0 0 3.23-4.39c.38-.65.74-1.32 1.07-2a26.79 26.79 0 0 0 -24.17-38.33zm0 33.18a6.41 6.41 0 1 1 6.4-6.4 6.4 6.4 0 0 1 -6.4 6.4z"/><path d="m259.83 350.69a6.41 6.41 0 1 1 -6.4-6.41 6.4 6.4 0 0 1 6.4 6.41z"/><path d="m574.07 312.82a37.89 37.89 0 0 0 -36.92 46.37c.07.31.14.62.22.93a37.76 37.76 0 0 0 3.72 9.2 36.9 36.9 0 0 0 2.78 4.21 37.85 37.85 0 0 0 61.07-.92 36.7 36.7 0 0 0 2.56-4.15 36.12 36.12 0 0 0 2.51-5.81 38 38 0 0 0 1.69-7.71 37.18 37.18 0 0 0 .24-4.25 37.87 37.87 0 0 0 -37.87-37.87zm26.33 42.77a26.57 26.57 0 0 1 -6.46 13.05 27.06 27.06 0 0 1 -4.85 4.21 26.76 26.76 0 0 1 -29.39.44 27.1 27.1 0 0 1 -5-4.15 26.73 26.73 0 0 1 -5.5-8.61c-.26-.65-.5-1.32-.7-2a26.45 26.45 0 0 1 -1.18-7.85 26.78 26.78 0 1 1 53.56 0 26.35 26.35 0 0 1 -.48 4.91z"/><path d="m574.07 323.91a26.78 26.78 0 0 0 -26.78 26.78 26.45 26.45 0 0 0 1.18 7.85c.2.67.44 1.34.7 2a26.73 26.73 0 0 0 5.5 8.61 27.1 27.1 0 0 0 5 4.15 26.76 26.76 0 0 0 29.39-.44 27.06 27.06 0 0 0 4.85-4.21 26.78 26.78 0 0 0 -19.87-44.73zm6.37 27.39a1 1 0 0 1 0 .17.51.51 0 0 1 0 .17c0 .14 0 .28-.07.41a0 0 0 0 1 0 0 2.22 2.22 0 0 1 -.09.37 2.17 2.17 0 0 1 -.07.24 4.14 4.14 0 0 1 -.19.49 3.45 3.45 0 0 1 -.3.61 1.19 1.19 0 0 1 -.18.3s0 0 0 .05a.25.25 0 0 1 0 .07 3.82 3.82 0 0 1 -.47.61 2.73 2.73 0 0 1 -.32.37 2.82 2.82 0 0 1 -.36.33 2.61 2.61 0 0 1 -.27.22.1.1 0 0 1 0 0 2.63 2.63 0 0 1 -.4.28 4.07 4.07 0 0 1 -.53.31 4.75 4.75 0 0 1 -1 .4 3.83 3.83 0 0 1 -.58.16.65.65 0 0 1 -.2 0 2.93 2.93 0 0 1 -.41.07h-.25-.53-.19-.51a5.85 5.85 0 0 1 -1.39-.31l-.3-.11a6.67 6.67 0 0 1 -.66-.31 2.14 2.14 0 0 1 -.38-.23h-.08a1.31 1.31 0 0 1 -.28-.2 1.86 1.86 0 0 1 -.28-.21 2.89 2.89 0 0 1 -.32-.29 1.07 1.07 0 0 1 -.16-.14 5.71 5.71 0 0 1 -.76-.93 3.55 3.55 0 0 1 -.32-.53 3.77 3.77 0 0 1 -.28-.57 5.89 5.89 0 0 1 -.21-.59.26.26 0 0 1 0-.11 3.11 3.11 0 0 1 -.11-.41 6.19 6.19 0 0 1 -.15-1.37 6.41 6.41 0 1 1 12.81 0c-.18.27-.19.48-.21.68z"/><path d="m580.47 350.69v.61a1 1 0 0 1 0 .17.51.51 0 0 1 0 .17c0 .14 0 .28-.07.41a0 0 0 0 1 0 0 2.22 2.22 0 0 1 -.09.37 2.17 2.17 0 0 1 -.07.24 4.14 4.14 0 0 1 -.19.49 3.45 3.45 0 0 1 -.3.61 2.38 2.38 0 0 1 -.18.3s0 0 0 .05a.25.25 0 0 1 0 .07 3.82 3.82 0 0 1 -.47.61 2.73 2.73 0 0 1 -.32.37 2.82 2.82 0 0 1 -.36.33 2.61 2.61 0 0 1 -.27.22.1.1 0 0 1 0 0l-.4.28a4.07 4.07 0 0 1 -.53.31 5.4 5.4 0 0 1 -1 .4 3.83 3.83 0 0 1 -.58.16h-.2a2.93 2.93 0 0 1 -.41.07h-.78-.19-.51a5.85 5.85 0 0 1 -1.39-.31l-.3-.11a6.67 6.67 0 0 1 -.66-.31 3 3 0 0 1 -.38-.23h-.08a2.83 2.83 0 0 1 -.28-.2 1.86 1.86 0 0 1 -.28-.21 2.89 2.89 0 0 1 -.32-.29 1.07 1.07 0 0 1 -.16-.14 5.71 5.71 0 0 1 -.76-.93 3.55 3.55 0 0 1 -.32-.53 3.77 3.77 0 0 1 -.28-.57 5.89 5.89 0 0 1 -.21-.59.26.26 0 0 1 0-.11 3.11 3.11 0 0 1 -.11-.41 6.19 6.19 0 0 1 -.15-1.37 6.41 6.41 0 1 1 12.81 0z"/><path d="m577 356.37a4.75 4.75 0 0 1 -1 .4 5.4 5.4 0 0 0 1-.4z"/><path d="m648.13 281c-.77-16.85-20.17-47.74-36.19-71.57s-207.94-11.78-232.15-9.49c-37 3.49-115.75 59.91-115.75 59.91-80 12.94-105.49 45.58-103.7 73.41 1.77 27.59 49.28 27.71 50.09 27.71a44.72 44.72 0 0 1 -1.2-10.29 44.2 44.2 0 1 1 86 14.49l235.57-5.62a44.7 44.7 0 0 1 -.89-8.87 44.2 44.2 0 0 1 88.39 0q0 2-.18 3.9a.29.29 0 0 1 0 .13c.69 0 4.1-.32 18.31-2.69 21.4-3.57 12.46-54.13 11.7-71.02zm-337.94-12.22-35.34 1s15.31-10.58 35.34-22.8zm103.3-3.09h-.09c-33.46 1-65.47 2-90.28 2.71v-29.1c22.71-13.22 48.23-26.2 64.07-28.47 5.52-.79 14.69-1.51 26.21-2.11h.09zm22.51-.69v-57.21c23.6-.76 51.82-1.08 78.19-.71l4.08 55.28c-25.27.84-53.85 1.75-82.27 2.64zm164.89-5.91c-6 .51-29 1.42-60.15 2.51l-4-54c34.22 1.1 61.29 3.66 64.14 8.36 7.42 12.23 24.18 41.04-.03 43.13z"/><path d="m310.19 247v21.77l-35.34 1s15.31-10.54 35.34-22.77z"/><path d="m413.49 208.72v57h-.09c-33.46 1-65.47 2-90.28 2.71v-29.13c22.71-13.22 48.23-26.2 64.07-28.47 5.52-.79 14.69-1.51 26.21-2.11z"/><path d="m514.15 207.08 4.08 55.28c-25.23.84-53.81 1.75-82.23 2.64v-57.21c23.56-.79 51.78-1.08 78.15-.71z"/><path d="m600.85 259.09c-6 .51-29 1.42-60.15 2.51l-4-54c34.22 1.1 61.29 3.66 64.14 8.36 7.46 12.23 24.22 41.04.01 43.13z"/><path d="m618.08 354.58a.29.29 0 0 1 0 .13c-.36-.01 0-.13 0-.13z"/><path d="m310.19 247v21.77l-35.34 1s15.31-10.54 35.34-22.77z"/><path d="m413.49 208.72v57h-.09c-33.46 1-65.47 2-90.28 2.71v-29.13c22.71-13.22 48.23-26.2 64.07-28.47 5.52-.79 14.69-1.51 26.21-2.11z"/><path d="m514.15 207.08 4.08 55.28c-25.23.84-53.81 1.75-82.23 2.64v-57.21c23.56-.79 51.78-1.08 78.15-.71z"/><path d="m600.85 259.09c-6 .51-29 1.42-60.15 2.51l-4-54c34.22 1.1 61.29 3.66 64.14 8.36 7.46 12.23 24.22 41.04.01 43.13z"/></g></svg>