<svg viewBox="0 0 513.36 183.82" xmlns="http://www.w3.org/2000/svg"><g fill="none" stroke="#1d1d1b" stroke-miterlimit="10" stroke-width="2"><g transform="translate(-147.63 -184.72)"><path d="m237.31 291.8a37.89 37.89 0 1 0 37.87 37.87 37.87 37.87 0 0 0 -37.87-37.87zm24.17 49.42a26.78 26.78 0 0 1 -49.07-1.71 26.43 26.43 0 0 1 -1.88-9.84 26.78 26.78 0 1 1 51 11.55z"/><path d="m237.31 302.89a26.78 26.78 0 0 0 -26.78 26.78 26.43 26.43 0 0 0 1.88 9.84 26.78 26.78 0 1 0 24.9-36.62zm0 33.18a6.41 6.41 0 1 1 6.4-6.4 6.4 6.4 0 0 1 -6.4 6.4z"/><path d="m243.71 329.67a6.41 6.41 0 1 1 -6.4-6.41 6.4 6.4 0 0 1 6.4 6.41z"/><path d="m558.09 291.8a37.87 37.87 0 0 0 -37.87 37.87 37.1 37.1 0 0 0 .66 7 37.87 37.87 0 0 0 75.12-6.28c0-.24 0-.48 0-.72a37.87 37.87 0 0 0 -37.91-37.87zm26.73 39.52a26.78 26.78 0 0 1 -52.8 4.46 26.2 26.2 0 0 1 -.71-6.11 26.78 26.78 0 1 1 53.56 0c0 .55-.02 1.1-.05 1.65z"/><path d="m558.09 302.89a26.78 26.78 0 0 0 -26.78 26.78 26.2 26.2 0 0 0 .71 6.11 26.78 26.78 0 0 0 52.8-4.46c0-.55 0-1.1 0-1.65a26.78 26.78 0 0 0 -26.73-26.78zm5.39 30.23a6.4 6.4 0 1 1 1-3.45 6.29 6.29 0 0 1 -1 3.45z"/><path d="m564.5 329.67a6.29 6.29 0 0 1 -1 3.45 6.4 6.4 0 1 1 1-3.45z"/><path d="m659.88 288.75c-.51-9.44-9.1-18.72-9.1-18.72s-.26-17.53 0-27.66-12.68-9.62-12.68-9.62c-38.81-1.7-98.72-44.59-198.46-47-48-1.14-87.15 17-87.15 17l-88.39 39.14c-39.54 6.3-73.93 15.06-94.34 23.49-20.17 8.34-22.72 24.17-20.42 49.28 2.17 23.69 42.51 24.08 42.51 24.08a46.37 46.37 0 1 1 91.83-9.12 46 46 0 0 1 -1.68 12.32l230.36-4.51a46.36 46.36 0 1 1 92.07-7.76s13.57-1.67 34.34-5.34 21.7-24.61 21.11-35.58zm-357.36-40.93s57.93-48.47 130.48-48.51l-10.74 44.69zm134.88-4.36 10.65-43.85c66.7 2.63 115.47 22.66 115.4 39.78z"/></g><path d="m300.42 14.89v-.01"/></g></svg>