<svg enable-background="new 0 0 841.89 595.28" viewBox="0 0 841.89 595.28" xmlns="http://www.w3.org/2000/svg">
    <g fill="none" stroke="#1d1d1b" stroke-miterlimit="10" stroke-width="2">
        <path
            d="m281.63 344.23c-2.29-12.46-13.21-21.9-26.33-21.9s-24.04 9.44-26.33 21.9c-.3 1.58-.45 3.21-.45 4.88 0 1.65.15 3.27.44 4.84.32 1.73.8 3.4 1.44 5 .41 1.04.89 2.05 1.42 3.03.99 1.8 2.18 3.47 3.55 4.99 4.88 5.47 12.01 8.92 19.93 8.92 8.22 0 15.57-3.7 20.48-9.53 1.15-1.35 2.15-2.82 3.01-4.38.24-.43.47-.87.68-1.32 1-2.1 1.74-4.35 2.17-6.71.29-1.57.44-3.19.44-4.84 0-1.67-.15-3.3-.45-4.88zm-22.16 9.72c-1.12.97-2.58 1.56-4.17 1.56-1.6 0-3.06-.59-4.18-1.56-1.37-1.16-2.23-2.9-2.23-4.84 0-1.14.3-2.21.83-3.13.06-.13.14-.25.22-.37.04-.07.08-.14.14-.2.07-.11.15-.22.25-.33 0-.02.01-.03.03-.04.01-.03.04-.06.08-.09.07-.1.16-.19.25-.28.01-.02.02-.03.04-.04.03-.05.08-.09.13-.13.09-.1.19-.19.3-.27.03-.04.07-.07.11-.09.28-.24.59-.45.91-.62.21-.13.43-.23.66-.32.09-.05.18-.08.28-.11.41-.16.84-.26 1.28-.32.11-.02.21-.03.31-.04.2-.02.39-.03.59-.03s.39.01.58.03c.1.01.21.02.31.04.44.05.86.16 1.26.32.09.02.18.05.27.1.06.01.11.03.16.07.14.05.28.12.42.2.21.1.41.22.59.35.16.11.31.22.46.35.03.01.06.04.08.07.02 0 .03.02.05.04.09.07.18.14.25.23.07.05.12.11.17.17.01 0 .01 0 .01.01.12.11.23.23.32.36.02.02.04.04.05.06.09.1.17.2.23.31.06.06.1.13.14.2.08.12.16.24.22.37.03.03.05.06.06.09.1.17.18.35.27.54.32.76.5 1.61.5 2.5 0 1.94-.86 3.68-2.23 4.84z" />
        <path
            d="m261.7 349.11c0 1.94-.86 3.68-2.23 4.84-1.12.97-2.58 1.56-4.17 1.56-1.6 0-3.06-.59-4.18-1.56-1.37-1.16-2.23-2.9-2.23-4.84 0-1.14.3-2.21.83-3.13.06-.13.14-.25.22-.37.04-.07.08-.14.14-.2.07-.11.15-.22.25-.33 0-.02.01-.03.03-.04.01-.03.04-.06.08-.09.07-.1.16-.19.25-.28.01-.02.02-.03.04-.04.04-.05.08-.09.13-.13.09-.1.19-.19.3-.27.03-.04.07-.07.11-.09.28-.24.59-.45.91-.62.21-.13.43-.23.66-.32.09-.05.18-.08.28-.11.41-.16.84-.26 1.28-.32.11-.02.21-.03.31-.04.2-.02.39-.03.59-.03s.39.01.58.03c.1.01.21.02.31.04.44.05.86.16 1.26.32.09.02.18.05.27.1.06.01.11.03.16.07.14.05.28.12.42.2.21.1.41.22.59.35.16.11.31.22.46.35.03.01.06.04.08.07.02 0 .03.02.05.04.09.07.18.14.25.23.07.05.12.11.17.17.01 0 .01 0 .01.01.11.11.22.23.32.36.02.02.04.04.05.06.09.1.16.2.23.31.06.06.1.13.14.2.08.12.16.24.22.37.03.03.05.06.06.09.09.17.18.35.27.54.32.76.5 1.61.5 2.5z" />
        <circle cx="255.3" cy="349.11" r="34.75" />
        <path
            d="m513.61 344.36c-2.29-12.46-13.21-21.9-26.33-21.9s-24.04 9.44-26.33 21.9c-.3 1.58-.45 3.21-.45 4.88 0 1.65.15 3.27.44 4.84.32 1.73.8 3.4 1.44 5 .41 1.04.89 2.05 1.42 3.03.99 1.8 2.18 3.47 3.55 4.99 4.88 5.47 12.01 8.92 19.93 8.92 8.22 0 15.57-3.7 20.48-9.53 1.15-1.35 2.15-2.82 3.01-4.38.24-.43.47-.87.68-1.32 1-2.1 1.74-4.35 2.17-6.71.29-1.57.44-3.19.44-4.84 0-1.67-.15-3.3-.45-4.88zm-22.16 9.72c-1.12.97-2.58 1.56-4.17 1.56-1.6 0-3.06-.59-4.18-1.56-1.37-1.16-2.23-2.9-2.23-4.84 0-1.14.3-2.21.83-3.13.06-.13.14-.25.22-.37.04-.07.08-.14.14-.2.07-.11.15-.22.25-.33 0-.02.01-.03.03-.04.01-.03.04-.06.08-.09.07-.1.16-.19.25-.28.01-.02.02-.03.04-.04.03-.05.08-.09.13-.13.09-.1.19-.19.3-.27.03-.04.07-.07.11-.09.28-.24.59-.45.91-.62.21-.13.43-.23.66-.32.09-.05.18-.08.28-.11.41-.16.84-.26 1.28-.32.11-.02.21-.03.31-.04.2-.02.39-.03.59-.03s.39.01.58.03c.1.01.21.02.31.04.44.05.86.16 1.26.32.09.02.18.05.27.1.06.01.11.03.16.07.14.05.28.12.42.2.21.1.41.22.59.35.16.11.31.22.46.35.03.01.06.04.08.07.02 0 .03.02.05.04.09.07.18.14.25.23.07.05.12.11.17.17.01 0 .01 0 .01.01.12.11.23.23.32.36.02.02.04.04.05.06.09.1.17.2.23.31.06.06.1.13.14.2.08.12.16.24.22.37.03.03.05.06.06.09.1.17.18.35.27.54.32.76.5 1.61.5 2.5 0 1.94-.86 3.68-2.23 4.84z" />
        <path
            d="m493.68 349.24c0 1.94-.86 3.68-2.23 4.84-1.12.97-2.58 1.56-4.17 1.56-1.6 0-3.06-.59-4.18-1.56-1.37-1.16-2.23-2.9-2.23-4.84 0-1.14.3-2.21.83-3.13.06-.13.14-.25.22-.37.04-.07.08-.14.14-.2.07-.11.15-.22.25-.33 0-.02.01-.03.03-.04.01-.03.04-.06.08-.09.07-.1.16-.19.25-.28.01-.02.02-.03.04-.04.04-.05.08-.09.13-.13.09-.1.19-.19.3-.27.03-.04.07-.07.11-.09.28-.24.59-.45.91-.62.21-.13.43-.23.66-.32.09-.05.18-.08.28-.11.41-.16.84-.26 1.28-.32.11-.02.21-.03.31-.04.2-.02.39-.03.59-.03s.39.01.58.03c.1.01.21.02.31.04.44.05.86.16 1.26.32.09.02.18.05.27.1.06.01.11.03.16.07.14.05.28.12.42.2.21.1.41.22.59.35.16.11.31.22.46.35.03.01.06.04.08.07.02 0 .03.02.05.04.09.07.18.14.25.23.07.05.12.11.17.17.01 0 .01 0 .01.01.11.11.22.23.32.36.02.02.04.04.05.06.09.1.16.2.23.31.06.06.1.13.14.2.08.12.16.24.22.37.03.03.05.06.06.09.09.17.18.35.27.54.32.76.5 1.61.5 2.5z" />
        <circle cx="487.28" cy="349.24" r="34.75" />
        <path d="m383.62 281.1-65.19.47c13.96-19.75 36.49-31.66 60.67-32.08l4.52-.08z" />
        <path
            d="m208.21 353.47s-9.96.09-10.98-29.28c0 0-.64-5.62 2.81-8.55 3.45-2.94 5.68-17.74 7.02-20.04s-1.4-10.6 80.04-17.49c0 0 13.4-.64 28.98-13.66s44.43-22.47 60.26-22.6 140.62 1.37 143.74 2.17c3.13.8 3.86 2.9.93 5.97-2.94 3.06 31.54 20.84 32.22 33.61s0 21.53 0 21.53 5.45 4.17 5.53 10.98c.09 6.81 0 20.34 0 20.34s-1.11 12.13-26.13 12.79l-14-34.67c-1.7-4.21-5.79-6.97-10.32-6.97h-39.61c-3.98 0-7.66 2.12-9.65 5.57l-24.5 42.47h-128.64l-19.94-41.27c-1.96-4.07-6.08-6.65-10.6-6.65h-40.54c-4.78 0-9.08 2.89-10.89 7.31z" />
        <path d="m393.06 249.41h57.57v31.63h-57.57z" />
        <path d="m511.02 281.04h-51.52v-31.63h19.89c17.47 0 31.63 14.16 31.63 31.63z" />
    </g>
</svg>