<svg width="364" height="145" viewBox="0 0 364 145" fill="none" xmlns="http://www.w3.org/2000/svg">
<path d="M85.6305 104.232C83.3405 91.7721 72.4205 82.332 59.3005 82.332C46.1805 82.332 35.2605 91.7721 32.9705 104.232C32.6705 105.812 32.5205 107.442 32.5205 109.112C32.5205 110.762 32.6705 112.382 32.9605 113.952C33.2805 115.682 33.7605 117.352 34.4005 118.952C34.8105 119.992 35.2905 121.002 35.8205 121.982C36.8105 123.782 38.0005 125.452 39.3705 126.972C44.2505 132.442 51.3805 135.892 59.3005 135.892C67.5205 135.892 74.8705 132.192 79.7805 126.362C80.9305 125.012 81.9305 123.542 82.7905 121.982C83.0305 121.552 83.2605 121.112 83.4705 120.662C84.4705 118.562 85.2105 116.312 85.6405 113.952C85.9305 112.382 86.0805 110.762 86.0805 109.112C86.0805 107.442 85.9305 105.812 85.6305 104.232ZM63.4705 113.952C62.3505 114.922 60.8905 115.512 59.3005 115.512C57.7005 115.512 56.2405 114.922 55.1205 113.952C53.7505 112.792 52.8905 111.052 52.8905 109.112C52.8905 107.972 53.1905 106.902 53.7205 105.982C53.7805 105.852 53.8605 105.732 53.9405 105.612C53.9805 105.542 54.0205 105.472 54.0805 105.412C54.1505 105.302 54.2305 105.192 54.3305 105.082C54.3305 105.062 54.3405 105.052 54.3605 105.042C54.3705 105.012 54.4005 104.982 54.4405 104.952C54.5105 104.852 54.6005 104.762 54.6905 104.672C54.7005 104.652 54.7105 104.642 54.7305 104.632C54.7605 104.582 54.8105 104.542 54.8605 104.502C54.9505 104.402 55.0505 104.312 55.1605 104.232C55.1905 104.192 55.2305 104.162 55.2705 104.142C55.5505 103.902 55.8605 103.692 56.1805 103.522C56.3905 103.392 56.6105 103.292 56.8405 103.202C56.9305 103.152 57.0205 103.122 57.1205 103.092C57.5305 102.932 57.9605 102.832 58.4005 102.772C58.5105 102.752 58.6105 102.742 58.7105 102.732C58.9105 102.712 59.1005 102.702 59.3005 102.702C59.5005 102.702 59.6905 102.712 59.8805 102.732C59.9805 102.742 60.0905 102.752 60.1905 102.772C60.6305 102.822 61.0505 102.932 61.4505 103.092C61.5405 103.112 61.6305 103.142 61.7205 103.192C61.7805 103.202 61.8305 103.222 61.8805 103.262C62.0205 103.312 62.1605 103.382 62.3005 103.462C62.5105 103.562 62.7105 103.682 62.8905 103.812C63.0505 103.922 63.2005 104.032 63.3505 104.162C63.3805 104.172 63.4105 104.202 63.4305 104.232C63.4505 104.232 63.4605 104.252 63.4805 104.272C63.5705 104.342 63.6605 104.412 63.7305 104.502C63.8005 104.552 63.8505 104.612 63.9005 104.672C63.9105 104.672 63.9105 104.672 63.9105 104.682C64.0305 104.792 64.1405 104.912 64.2305 105.042C64.2505 105.062 64.2705 105.082 64.2805 105.102C64.3705 105.202 64.4505 105.302 64.5105 105.412C64.5705 105.472 64.6105 105.542 64.6505 105.612C64.7305 105.732 64.8105 105.852 64.8705 105.982C64.9005 106.012 64.9205 106.042 64.9305 106.072C65.0305 106.242 65.1105 106.422 65.2005 106.612C65.5205 107.372 65.7005 108.222 65.7005 109.112C65.7005 111.052 64.8405 112.792 63.4705 113.952Z" stroke="#1D1D1B" stroke-width="2" stroke-miterlimit="10"/>
<path d="M65.7006 109.113C65.7006 111.053 64.8406 112.793 63.4706 113.953C62.3506 114.923 60.8906 115.513 59.3006 115.513C57.7006 115.513 56.2406 114.923 55.1206 113.953C53.7506 112.793 52.8906 111.053 52.8906 109.113C52.8906 107.973 53.1906 106.903 53.7206 105.983C53.7806 105.853 53.8606 105.733 53.9406 105.613C53.9806 105.543 54.0206 105.473 54.0806 105.413C54.1506 105.303 54.2306 105.193 54.3306 105.083C54.3306 105.063 54.3406 105.053 54.3606 105.043C54.3706 105.013 54.4006 104.983 54.4406 104.953C54.5106 104.853 54.6006 104.763 54.6906 104.673C54.7006 104.653 54.7106 104.643 54.7306 104.633C54.7706 104.583 54.8106 104.543 54.8606 104.503C54.9506 104.403 55.0506 104.313 55.1606 104.233C55.1906 104.193 55.2306 104.163 55.2706 104.143C55.5506 103.903 55.8606 103.693 56.1806 103.523C56.3906 103.393 56.6106 103.293 56.8406 103.203C56.9306 103.153 57.0206 103.123 57.1206 103.093C57.5306 102.933 57.9606 102.833 58.4006 102.773C58.5106 102.753 58.6106 102.743 58.7106 102.733C58.9106 102.713 59.1006 102.703 59.3006 102.703C59.5006 102.703 59.6906 102.713 59.8806 102.733C59.9806 102.743 60.0906 102.753 60.1906 102.773C60.6306 102.823 61.0506 102.933 61.4506 103.093C61.5406 103.113 61.6306 103.143 61.7206 103.193C61.7806 103.203 61.8306 103.223 61.8806 103.263C62.0206 103.313 62.1606 103.383 62.3006 103.463C62.5106 103.563 62.7106 103.683 62.8906 103.813C63.0506 103.923 63.2006 104.033 63.3506 104.163C63.3806 104.173 63.4106 104.203 63.4306 104.233C63.4506 104.233 63.4606 104.253 63.4806 104.273C63.5706 104.343 63.6606 104.413 63.7306 104.503C63.8006 104.553 63.8506 104.613 63.9006 104.673C63.9106 104.673 63.9106 104.673 63.9106 104.683C64.0206 104.793 64.1306 104.913 64.2306 105.043C64.2506 105.063 64.2706 105.083 64.2806 105.103C64.3706 105.203 64.4406 105.303 64.5106 105.413C64.5706 105.473 64.6106 105.543 64.6506 105.613C64.7306 105.733 64.8106 105.853 64.8706 105.983C64.9006 106.013 64.9206 106.043 64.9306 106.073C65.0206 106.243 65.1106 106.423 65.2006 106.613C65.5206 107.373 65.7006 108.223 65.7006 109.113Z" stroke="#1D1D1B" stroke-width="2" stroke-miterlimit="10"/>
<path d="M59.3008 143.863C78.4927 143.863 94.0508 128.305 94.0508 109.113C94.0508 89.9214 78.4927 74.3633 59.3008 74.3633C40.1089 74.3633 24.5508 89.9214 24.5508 109.113C24.5508 128.305 40.1089 143.863 59.3008 143.863Z" stroke="#1D1D1B" stroke-width="2" stroke-miterlimit="10"/>
<path d="M317.61 104.361C315.32 91.9009 304.4 82.4609 291.28 82.4609C278.16 82.4609 267.24 91.9009 264.95 104.361C264.65 105.941 264.5 107.571 264.5 109.241C264.5 110.891 264.65 112.511 264.94 114.081C265.26 115.811 265.74 117.481 266.38 119.081C266.79 120.121 267.27 121.131 267.8 122.111C268.79 123.911 269.98 125.581 271.35 127.101C276.23 132.571 283.36 136.021 291.28 136.021C299.5 136.021 306.85 132.321 311.76 126.491C312.91 125.141 313.91 123.671 314.77 122.111C315.01 121.681 315.24 121.241 315.45 120.791C316.45 118.691 317.19 116.441 317.62 114.081C317.91 112.511 318.06 110.891 318.06 109.241C318.06 107.571 317.91 105.941 317.61 104.361ZM295.45 114.081C294.33 115.051 292.87 115.641 291.28 115.641C289.68 115.641 288.22 115.051 287.1 114.081C285.73 112.921 284.87 111.181 284.87 109.241C284.87 108.101 285.17 107.031 285.7 106.111C285.76 105.981 285.84 105.861 285.92 105.741C285.96 105.671 286 105.601 286.06 105.541C286.13 105.431 286.21 105.321 286.31 105.211C286.31 105.191 286.32 105.181 286.34 105.171C286.35 105.141 286.38 105.111 286.42 105.081C286.49 104.981 286.58 104.891 286.67 104.801C286.68 104.781 286.69 104.771 286.71 104.761C286.74 104.711 286.79 104.671 286.84 104.631C286.93 104.531 287.03 104.441 287.14 104.361C287.17 104.321 287.21 104.291 287.25 104.271C287.53 104.031 287.84 103.821 288.16 103.651C288.37 103.521 288.59 103.421 288.82 103.331C288.91 103.281 289 103.251 289.1 103.221C289.51 103.061 289.94 102.961 290.38 102.901C290.49 102.881 290.59 102.871 290.69 102.861C290.89 102.841 291.08 102.831 291.28 102.831C291.48 102.831 291.67 102.841 291.86 102.861C291.96 102.871 292.07 102.881 292.17 102.901C292.61 102.951 293.03 103.061 293.43 103.221C293.52 103.241 293.61 103.271 293.7 103.321C293.76 103.331 293.81 103.351 293.86 103.391C294 103.441 294.14 103.511 294.28 103.591C294.49 103.691 294.69 103.811 294.87 103.941C295.03 104.051 295.18 104.161 295.33 104.291C295.36 104.301 295.39 104.331 295.41 104.361C295.43 104.361 295.44 104.381 295.46 104.401C295.55 104.471 295.64 104.541 295.71 104.631C295.78 104.681 295.83 104.741 295.88 104.801C295.89 104.801 295.89 104.801 295.89 104.811C296.01 104.921 296.12 105.041 296.21 105.171C296.23 105.191 296.25 105.211 296.26 105.231C296.35 105.331 296.43 105.431 296.49 105.541C296.55 105.601 296.59 105.671 296.63 105.741C296.71 105.861 296.79 105.981 296.85 106.111C296.88 106.141 296.9 106.171 296.91 106.201C297.01 106.371 297.09 106.551 297.18 106.741C297.5 107.501 297.68 108.351 297.68 109.241C297.68 111.181 296.82 112.921 295.45 114.081Z" stroke="#1D1D1B" stroke-width="2" stroke-miterlimit="10"/>
<path d="M297.68 109.242C297.68 111.182 296.82 112.922 295.45 114.082C294.33 115.052 292.87 115.642 291.28 115.642C289.68 115.642 288.22 115.052 287.1 114.082C285.73 112.922 284.87 111.182 284.87 109.242C284.87 108.102 285.17 107.032 285.7 106.112C285.76 105.982 285.84 105.862 285.92 105.742C285.96 105.672 286 105.602 286.06 105.542C286.13 105.432 286.21 105.322 286.31 105.212C286.31 105.192 286.32 105.182 286.34 105.172C286.35 105.142 286.38 105.112 286.42 105.082C286.49 104.982 286.58 104.892 286.67 104.802C286.68 104.782 286.69 104.772 286.71 104.762C286.75 104.712 286.79 104.672 286.84 104.632C286.93 104.532 287.03 104.442 287.14 104.362C287.17 104.322 287.21 104.292 287.25 104.272C287.53 104.032 287.84 103.822 288.16 103.652C288.37 103.522 288.59 103.422 288.82 103.332C288.91 103.282 289 103.252 289.1 103.222C289.51 103.062 289.94 102.962 290.38 102.902C290.49 102.882 290.59 102.872 290.69 102.862C290.89 102.842 291.08 102.832 291.28 102.832C291.48 102.832 291.67 102.842 291.86 102.862C291.96 102.872 292.07 102.882 292.17 102.902C292.61 102.952 293.03 103.062 293.43 103.222C293.52 103.242 293.61 103.272 293.7 103.322C293.76 103.332 293.81 103.352 293.86 103.392C294 103.442 294.14 103.512 294.28 103.592C294.49 103.692 294.69 103.812 294.87 103.942C295.03 104.052 295.18 104.162 295.33 104.292C295.36 104.302 295.39 104.332 295.41 104.362C295.43 104.362 295.44 104.382 295.46 104.402C295.55 104.472 295.64 104.542 295.71 104.632C295.78 104.682 295.83 104.742 295.88 104.802C295.89 104.802 295.89 104.802 295.89 104.812C296 104.922 296.11 105.042 296.21 105.172C296.23 105.192 296.25 105.212 296.26 105.232C296.35 105.332 296.42 105.432 296.49 105.542C296.55 105.602 296.59 105.672 296.63 105.742C296.71 105.862 296.79 105.982 296.85 106.112C296.88 106.142 296.9 106.172 296.91 106.202C297 106.372 297.09 106.552 297.18 106.742C297.5 107.502 297.68 108.352 297.68 109.242Z" stroke="#1D1D1B" stroke-width="2" stroke-miterlimit="10"/>
<path d="M291.28 143.992C310.472 143.992 326.03 128.434 326.03 109.242C326.03 90.0503 310.472 74.4922 291.28 74.4922C272.088 74.4922 256.53 90.0503 256.53 109.242C256.53 128.434 272.088 143.992 291.28 143.992Z" stroke="#1D1D1B" stroke-width="2" stroke-miterlimit="10"/>
<path d="M187.621 41.1002L122.431 41.5702C136.391 21.8202 158.921 9.91016 183.101 9.49016L187.621 9.41016V41.1002Z" stroke="#1D1D1B" stroke-width="2" stroke-miterlimit="10"/>
<path d="M12.2105 113.472C12.2105 113.472 2.25046 113.562 1.23046 84.1917C1.23046 84.1917 0.59046 78.5717 4.04046 75.6417C7.49046 72.7017 9.72046 57.9017 11.0605 55.6017C12.4005 53.3017 9.66047 45.0017 91.1005 38.1117C91.1005 38.1117 104.5 37.4717 120.08 24.4517C135.66 11.4317 164.51 1.98168 180.34 1.85168C196.17 1.72168 320.96 3.22168 324.08 4.02168C327.21 4.82168 327.94 6.92168 325.01 9.99168C322.07 13.0517 356.55 30.8317 357.23 43.6017C357.91 56.3717 357.23 65.1317 357.23 65.1317C357.23 65.1317 362.68 69.3017 362.76 76.1117C362.85 82.9217 362.76 96.4517 362.76 96.4517C362.76 96.4517 361.65 108.582 336.63 109.242L322.63 74.5717C320.93 70.3617 316.84 67.6017 312.31 67.6017H272.7C268.72 67.6017 265.04 69.7217 263.05 73.1717L238.55 115.642H109.91L89.9705 74.3717C88.0105 70.3017 83.8905 67.7217 79.3705 67.7217H38.8305C34.0505 67.7217 29.7505 70.6117 27.9405 75.0317L12.2105 113.472Z" stroke="#1D1D1B" stroke-width="2" stroke-miterlimit="10"/>
<path d="M197.061 9.41016H254.631V41.0402H197.061V9.41016Z" stroke="#1D1D1B" stroke-width="2" stroke-miterlimit="10"/>
<path d="M315.02 41.0402H263.5V9.41016H283.39C300.86 9.41016 315.02 23.5702 315.02 41.0402Z" stroke="#1D1D1B" stroke-width="2" stroke-miterlimit="10"/>
</svg>
