<svg viewBox="0 0 509.1 214.15" xmlns="http://www.w3.org/2000/svg"><g fill="none" stroke="#1d1d1b" stroke-miterlimit="10" stroke-width="2" transform="translate(-156.62 -175.39)"><path d="m252.21 312.81a37.9 37.9 0 0 0 -35.76 47.29q.28 1.09.63 2.16a37.89 37.89 0 0 0 72 .37c.17-.52.34-1.05.48-1.58a37.45 37.45 0 0 0 1.44-10.38 37.88 37.88 0 0 0 -38.79-37.86zm25.54 48.44c-.13.33-.28.65-.43 1a26.78 26.78 0 0 1 -48.4-.16c-.24-.51-.46-1-.67-1.55a26.59 26.59 0 0 1 -1.82-11.58 26.78 26.78 0 1 1 51.32 12.32z"/><path d="m251.26 324a26.88 26.88 0 0 0 -24.83 25 26.59 26.59 0 0 0 1.82 11.58c.21.53.43 1 .67 1.55a26.78 26.78 0 0 0 48.4.16c.15-.32.3-.64.43-1a26.78 26.78 0 0 0 -26.49-37.29zm1.89 33.12a6.4 6.4 0 0 1 -6.41-6.46 6.5 6.5 0 0 1 6.28-6.35 6.41 6.41 0 1 1 .13 12.81z"/><path d="m259.55 350.67a6.4 6.4 0 0 1 -6.54 6.4 6.49 6.49 0 0 1 -6.27-6.34 6.41 6.41 0 1 1 12.81-.06z"/><path d="m572.76 313.28a37.92 37.92 0 0 0 -31.63 39.77 36.69 36.69 0 0 0 .44 3.81c.17 1.09.4 2.17.67 3.23a37.89 37.89 0 0 0 72.64 2.53 38.54 38.54 0 0 0 1.93-12 37.89 37.89 0 0 0 -44.05-37.34zm32.46 42.52a26.35 26.35 0 0 1 -2.11 6.41 26.78 26.78 0 0 1 -49.11-1.71 24.67 24.67 0 0 1 -1.19-3.83 25.35 25.35 0 0 1 -.68-5.41 26.78 26.78 0 1 1 53.55-.6 26.43 26.43 0 0 1 -.46 5.14z"/><path d="m573.28 324.46a26.73 26.73 0 0 0 -21.11 26.8 25.35 25.35 0 0 0 .68 5.41 24.67 24.67 0 0 0 1.15 3.83 26.78 26.78 0 0 0 49.07 1.71 27 27 0 0 0 2.61-11.55 26.81 26.81 0 0 0 -32.4-26.2zm8.88 31.72a6.28 6.28 0 0 1 -3.21.88 6.43 6.43 0 1 1 3.22-.88z"/><path d="m585.34 350.66a6.37 6.37 0 0 1 -3.18 5.52 6.28 6.28 0 0 1 -3.21.88 6.4 6.4 0 1 1 6.4-6.4z"/><path d="m664.6 335.94c-.36-5.24-4.5-7.55-6.84-8.45a2.5 2.5 0 0 1 -1.62-2.3c-1.65-104.44-17.26-133.55-24-141.31a9.76 9.76 0 0 0 -5.72-3.13c-46.23-7.8-140.95-3.55-197.57.46-53.57 3.79-142.92 68.46-155.46 77.71a7.1 7.1 0 0 1 -3.3 1.34c-15.42 2.11-48.75 7.94-73.92 16.44-21 7.1-27.24 21.1-28.88 26.36a11.08 11.08 0 0 1 -2.14 3.91c-6.57 7.75-7.45 12.5-7.45 12.5s-.09 6.42 0 9.74c.06 2.37 2.45 3.65 3.83 4.2a1.49 1.49 0 0 1 .94 1.39v16.5a1.71 1.71 0 0 1 -.86 1.5c-1.16.65-2.63 2.54-.08 4.27 3.32 2.24 47.64 5.32 47.64 5.32a45.76 45.76 0 0 1 -1.52-11.72c0-29.64 28.32-52.67 59.38-43.5a43.56 43.56 0 0 1 27.61 24.2 47.22 47.22 0 0 1 2.93 29.55l236.26-3.92a45.55 45.55 0 1 1 90.39-1.5l28.56-.48a11.58 11.58 0 0 0 10.78-7.68 29.45 29.45 0 0 0 1.04-11.4zm-234.9-122.17c-1.05 7.19-3.33 28.45-7.17 39.54a10.17 10.17 0 0 1 -9.63 6.8h-120.81s64.46-59.62 132.38-55.79c0 0 6.64-.13 5.23 9.45z"/></g></svg>