<svg viewBox="0 0 554.36 194.42" xmlns="http://www.w3.org/2000/svg"><g fill="none" stroke="#1d1d1b" stroke-miterlimit="10" stroke-width="2" transform="translate(-156.06 -195.12)"><path d="m253.72 312.8a37.91 37.91 0 0 0 -36.72 47.3c.3 1.17.65 2.32 1.06 3.44a37.89 37.89 0 0 0 69.46 4.18 34.4 34.4 0 0 0 1.8-4.18c.11-.3.22-.6.32-.91a37.89 37.89 0 0 0 -35.94-49.83zm24.17 49.42c-.21.45-.44.89-.68 1.32a27 27 0 0 1 -3 4.38 26.76 26.76 0 0 1 -40.42.61 27 27 0 0 1 -3.54-5 27.85 27.85 0 0 1 -1.42-3 26.43 26.43 0 0 1 -1.88-9.84 26.78 26.78 0 1 1 50.95 11.55z"/><path d="m253.72 323.89a26.78 26.78 0 0 0 -26.78 26.78 26.43 26.43 0 0 0 1.88 9.84 27.85 27.85 0 0 0 1.42 3 27 27 0 0 0 3.54 5 26.76 26.76 0 0 0 40.42-.61 27 27 0 0 0 3-4.38c.24-.43.47-.87.68-1.32a26.79 26.79 0 0 0 -24.17-38.33zm0 33.18a6.41 6.41 0 1 1 6.4-6.4 6.4 6.4 0 0 1 -6.4 6.4z"/><path d="m260.12 350.67a6.41 6.41 0 1 1 -6.4-6.41 6.4 6.4 0 0 1 6.4 6.41z"/><path d="m595 312.8a37.91 37.91 0 0 0 -36.7 47.3c.3 1.17.65 2.32 1.06 3.44a37.89 37.89 0 0 0 69.46 4.18 34.4 34.4 0 0 0 1.8-4.18c.11-.3.22-.6.32-.91a37.89 37.89 0 0 0 -35.94-49.83zm24.17 49.42c-.21.45-.44.89-.68 1.32a27 27 0 0 1 -3 4.38 26.76 26.76 0 0 1 -40.42.61 27 27 0 0 1 -3.54-5 27.85 27.85 0 0 1 -1.42-3 26.43 26.43 0 0 1 -1.88-9.84 26.78 26.78 0 1 1 51 11.55z"/><path d="m595 323.89a26.78 26.78 0 0 0 -26.78 26.78 26.43 26.43 0 0 0 1.88 9.84 27.85 27.85 0 0 0 1.42 3 27 27 0 0 0 3.54 5 26.76 26.76 0 0 0 40.42-.61 27 27 0 0 0 3-4.38c.24-.43.47-.87.68-1.32a26.79 26.79 0 0 0 -24.16-38.31zm0 33.18a6.41 6.41 0 1 1 6.4-6.4 6.4 6.4 0 0 1 -6.4 6.4z"/><path d="m601.42 350.67a6.41 6.41 0 1 1 -6.4-6.41 6.4 6.4 0 0 1 6.4 6.41z"/><path d="m709.4 322.91c-.12-6-10.08-9.57-10.08-9.57v-34.72c0-10.34-18.26-39.53-36.3-59.45-11.19-12.35-59.87-19.92-115.29-22.27-5.39-.22-10.86-.4-16.35-.53a847.17 847.17 0 0 0 -85.89 2.2c-84.09 6.81-164.09 63.66-164.09 63.66-12.25.17-73.19 13.58-95.4 20.86s-31.79 26.29-28.21 52.72c3.49 25.84 46.82 27.66 48.73 27.73a48.92 48.92 0 1 1 94.4 0h246.9a48.92 48.92 0 1 1 94.4 0s46.75-15.22 57-18 10.31-16.63 10.18-22.63zm-258.12-60.74c-56.95 2-146 5.09-146 5.09s53.79-51 141.62-57.79l4.43-.33zm85.41-3.42c-19.29 1-36.69 1.75-47.88 2.12l-23.37.8v-53.42c24-1.3 48.44-1.62 71.25-1.16zm14.16-.78v-25.25l13.15 24.46c-4.43.28-8.81.54-13.15.82zm97.53-10.12c-6.53 3.14-36.07 6-68.91 8.31l-26-48.6c48.19 1.8 86 7 91.62 13.23 9.42 10.47 16.57 20.68 3.29 27.06z"/><path d="m451.28 209.14v53c-56.95 2-146 5.09-146 5.09s53.79-51 141.62-57.79z"/><path d="m536.69 207.09v51.66c-19.29 1-36.69 1.75-47.88 2.12l-23.37.8v-53.42c24.01-1.25 48.44-1.62 71.25-1.16z"/><path d="m564 257.18c-4.38.28-8.76.54-13.1.79v-25.25z"/><path d="m648.38 247.85c-6.53 3.14-36.07 6-68.91 8.31l-26-48.6c48.19 1.8 86 7 91.62 13.23 9.42 10.47 16.57 20.68 3.29 27.06z"/></g></svg>