<svg width="119" height="119" viewBox="0 0 119 119" fill="none" xmlns="http://www.w3.org/2000/svg">
<path fill-rule="evenodd" clip-rule="evenodd" d="M98.372 90.2063C98.372 106.549 75.9604 108.438 59.107 108.438L57.9009 108.437C47.1634 108.411 19.832 107.733 19.832 90.1072C19.832 74.098 41.343 71.9585 58.0681 71.8778L60.313 71.8764C71.0499 71.9025 98.372 72.5804 98.372 90.2063ZM59.107 79.3129C37.9795 79.3129 27.2695 82.9424 27.2695 90.1072C27.2695 97.3364 37.9795 101.001 59.107 101.001C80.2295 101.001 90.9345 97.3711 90.9345 90.2063C90.9345 82.9771 80.2295 79.3129 59.107 79.3129ZM59.107 9.91406C73.625 9.91406 85.4308 21.7248 85.4308 36.2428C85.4308 50.7608 73.625 62.5666 59.107 62.5666H58.9483C44.4601 62.522 32.7237 50.7063 32.7731 36.2279C32.7731 21.7248 44.584 9.91406 59.107 9.91406ZM59.107 16.9946C48.4912 16.9946 39.8537 25.627 39.8537 36.2428C39.8191 46.8239 48.392 55.4514 58.9632 55.4911L59.107 59.0313V55.4911C69.7178 55.4911 78.3503 46.8536 78.3503 36.2428C78.3503 25.627 69.7178 16.9946 59.107 16.9946Z" fill="#4038FF"/>
</svg>
