<svg width="36" height="36" viewBox="0 0 36 36" fill="none" xmlns="http://www.w3.org/2000/svg">
<path d="M17.9996 34C22.1596 34 25.9356 32.416 28.7836 29.8081C28.6236 28.3042 27.6636 26.8322 25.9516 25.6802C21.5996 22.7683 14.4316 22.7683 10.0476 25.6802C8.33562 26.8322 7.37563 28.3042 7.21563 29.8081C10.0636 32.416 13.8396 34 17.9996 34ZM17.9996 34C26.8362 34 34 26.8359 34 17.9996C34 9.16325 26.8366 2 18 2C9.16344 2 2 9.16325 2 17.9996C2 26.8359 9.16307 34 17.9996 34ZM18.1916 19.2483C18.0796 19.2323 17.9356 19.2323 17.8076 19.2483C14.9916 19.1523 12.7516 16.8483 12.7516 14.0164C12.7516 11.1205 15.0876 8.76856 17.9996 8.76856C20.8956 8.76856 23.2476 11.1205 23.2476 14.0164C23.2316 16.8483 21.0076 19.1523 18.1916 19.2483Z" stroke="#A7A7A7" stroke-width="2.5" stroke-linecap="round" stroke-linejoin="round"/>
</svg>
