<svg width="10" height="16" viewBox="0 0 10 16" fill="none" xmlns="http://www.w3.org/2000/svg">
<path d="M0.00337955 7.98745C0.0027282 7.72089 0.118917 7.46255 0.33178 7.2573L7.47095 0.412138C7.7133 0.179156 8.06157 0.0326413 8.43913 0.00482746C8.81668 -0.0229864 9.19261 0.0701785 9.48419 0.263826C9.77578 0.457475 9.95915 0.735743 9.99396 1.03742C10.0288 1.33909 9.91217 1.63946 9.66981 1.87244L3.27312 7.98745L9.44136 14.1025C9.55996 14.2192 9.64853 14.3534 9.70198 14.4976C9.75542 14.6417 9.77269 14.7929 9.75279 14.9423C9.73289 15.0918 9.67621 15.2367 9.586 15.3686C9.4958 15.5005 9.37386 15.6169 9.22718 15.7111C9.08037 15.8156 8.90814 15.8947 8.72127 15.9435C8.5344 15.9923 8.33693 16.0098 8.14123 15.9948C7.94553 15.9798 7.75581 15.9327 7.58396 15.8564C7.41211 15.7801 7.26183 15.6762 7.14255 15.5514L0.246112 8.70619C0.0668952 8.49504 -0.0185674 8.24198 0.00337955 7.98745Z" fill="white"/>
</svg>
