<svg width="22" height="22" viewBox="0 0 22 22" fill="none" xmlns="http://www.w3.org/2000/svg">
<path d="M6.60098 11.0039L1.10156 11.0039" stroke="white" stroke-width="1.5" stroke-linecap="round"/>
<path d="M20.8993 11.0039L17.5996 11.0039" stroke="white" stroke-width="1.5" stroke-linecap="round"/>
<path d="M13.2003 3.30078L1.10156 3.30078" stroke="white" stroke-width="1.5" stroke-linecap="round"/>
<path d="M8.79971 18.7031L20.8984 18.7031" stroke="white" stroke-width="1.5" stroke-linecap="round"/>
<path d="M21.2497 3.30082C21.2497 4.70985 20.1079 5.85164 18.7 5.85164C17.2922 5.85164 16.1504 4.70985 16.1504 3.30082C16.1504 1.89179 17.2922 0.75 18.7 0.75C20.1079 0.75 21.2497 1.89179 21.2497 3.30082Z" stroke="white" stroke-width="1.5" stroke-linecap="round"/>
<path d="M0.750303 18.6993C0.750303 20.1083 1.89207 21.2501 3.29996 21.2501C4.70784 21.2501 5.84961 20.1083 5.84961 18.6993C5.84961 17.2902 4.70784 16.1484 3.29996 16.1484C1.89207 16.1484 0.750303 17.2902 0.750303 18.6993Z" stroke="white" stroke-width="1.5" stroke-linecap="round"/>
<path d="M14.654 11.0079C14.654 12.4169 13.5122 13.5587 12.1043 13.5587C10.6965 13.5587 9.55469 12.4169 9.55469 11.0079C9.55469 9.59882 10.6965 8.45703 12.1043 8.45703C13.5122 8.45703 14.654 9.59882 14.654 11.0079Z" stroke="white" stroke-width="1.5" stroke-linecap="round"/>
</svg>
