<svg width="36" height="35" viewBox="0 0 36 35" fill="none" xmlns="http://www.w3.org/2000/svg">
<path d="M2 15.9481C2 13.8523 2 12.8043 2.4733 11.92C2.9466 11.0356 3.81853 10.4543 5.5624 9.29173L13.5624 3.9584C15.7134 2.5244 16.7889 1.8074 18 1.8074C19.2111 1.8074 20.2866 2.5244 22.4376 3.9584L30.4376 9.29174C32.1815 10.4543 33.0534 11.0356 33.5267 11.92C34 12.8043 34 13.8523 34 15.9481V25C34 28.7712 34 30.6569 32.8284 31.8284C31.6569 33 29.7712 33 26 33H10C6.22876 33 4.34315 33 3.17157 31.8284C2 30.6569 2 28.7712 2 25V15.9481Z" stroke="#4038FF" stroke-width="2.5" stroke-miterlimit="10"/>
<path d="M12.668 24.8086C12.668 22.923 12.668 21.9802 13.2538 21.3944C13.8395 20.8086 14.7824 20.8086 16.668 20.8086H19.3346C21.2203 20.8086 22.1631 20.8086 22.7488 21.3944C23.3346 21.9802 23.3346 22.923 23.3346 24.8086V32.9991H12.668V24.8086Z" stroke="#4038FF" stroke-width="2.5" stroke-miterlimit="10"/>
</svg>
