<svg width="20" height="17" viewBox="0 0 20 17" fill="none" xmlns="http://www.w3.org/2000/svg">
<path fill-rule="evenodd" clip-rule="evenodd" d="M18.4174 0.216267C18.7104 0.504624 18.7104 0.972096 18.4174 1.26045L2.6434 16.7835C2.4974 16.9282 2.3054 17 2.1134 17C1.9214 17 1.7294 16.9282 1.5834 16.7835C1.2904 16.4951 1.2904 16.0286 1.5834 15.7403L3.55535 13.8008C2.14153 12.5281 0.942217 10.8125 0.0615 8.79237C-0.0205 8.60538 -0.0205 8.39477 0.0615 8.20877C1.0825 5.88223 2.5205 3.95624 4.2205 2.64043C7.51333 0.0757787 11.8423 -0.0603537 15.2687 2.2717L17.3574 0.216267C17.6504 -0.0720892 18.1244 -0.0720892 18.4174 0.216267ZM18.0472 4.96087C18.7712 5.90664 19.4072 7.00003 19.9382 8.2066C20.0212 8.39359 20.0212 8.60617 19.9382 8.79217C17.8422 13.5722 14.1272 16.4253 10.0002 16.4253C9.0632 16.4253 8.1312 16.2757 7.2312 15.9814C6.8382 15.8525 6.6252 15.4342 6.7562 15.0474C6.8872 14.6597 7.3102 14.454 7.7052 14.58C8.4522 14.825 9.2242 14.949 10.0002 14.949C13.4282 14.949 16.5612 12.5457 18.4302 8.49988C17.9742 7.51671 17.4432 6.62605 16.8492 5.84857C16.6002 5.52282 16.6662 5.05928 16.9972 4.81423C17.3272 4.56917 17.7982 4.6361 18.0472 4.96087ZM5.1495 3.79976C3.7135 4.91185 2.4805 6.53177 1.5705 8.50204C2.36394 10.2267 3.40632 11.6812 4.61705 12.7553L6.75486 10.6516C6.31993 10.0218 6.0859 9.27927 6.0859 8.50165C6.0859 6.37588 7.8419 4.64672 9.9999 4.64672C10.7829 4.64672 11.5488 4.88135 12.1865 5.30542L14.188 3.33574C11.3352 1.52074 7.86299 1.68631 5.1495 3.79976ZM13.2375 8.32745C13.6455 8.3993 13.9165 8.78312 13.8435 9.18465C13.5565 10.7524 12.2945 11.9964 10.7025 12.2818C10.6575 12.2897 10.6115 12.2936 10.5675 12.2936C10.2125 12.2936 9.8965 12.0436 9.8305 11.6873C9.7565 11.2868 10.0265 10.902 10.4345 10.8292C11.4145 10.654 12.1905 9.88832 12.3665 8.92287C12.4405 8.52232 12.8305 8.25856 13.2375 8.32745ZM9.9999 6.12295C8.6689 6.12295 7.5859 7.18977 7.5859 8.50165C7.5859 8.88092 7.67663 9.24704 7.84765 9.57582L11.0933 6.38123C10.7591 6.21365 10.3833 6.12295 9.9999 6.12295Z" fill="#4038FF"/>
</svg>
